<svg width="340" height="568" viewBox="0 0 340 568" fill="none" xmlns="http://www.w3.org/2000/svg">
<rect width="340" height="568" fill="#E85835"/>
<rect x="13.5" y="15.5" width="312.275" height="537" rx="15.5" stroke="white" stroke-width="3"/>
<path d="M258.789 66.2244V66.8942C258.789 67.7529 259.212 68.3282 260.056 68.3282H269.935C270.693 68.3282 271.116 67.8495 271.116 66.8942V66.2244C271.116 65.364 270.693 64.7905 269.935 64.7905H260.056C259.296 64.7905 258.789 65.2675 258.789 66.2244ZM243 108.863C243 109.533 243.423 110.011 244.014 110.011H245.28C245.871 110.011 246.209 109.533 246.209 108.863V59.9148L253.302 109.054C253.385 109.629 253.808 110.011 254.399 110.011H255.666C256.34 110.011 256.678 109.533 256.678 108.863V46.1481C256.678 45.4781 256.34 45 255.666 45H254.483C253.808 45 253.471 45.4781 253.471 46.1481V92.1328L246.884 45.9551C246.715 45.2877 246.293 45 245.703 45H244.014C243.423 45 243 45.4781 243 46.1481V108.863ZM258.367 52.3619C258.367 56.7593 261.322 60.0094 264.953 60.0094C268.584 60.0094 271.622 56.7593 271.622 52.3619C271.622 48.2513 268.584 45 264.953 45C261.322 45 258.367 48.2513 258.367 52.3619ZM258.789 76.8363C258.789 77.6966 259.212 78.2702 260.056 78.2702H269.935C270.693 78.2702 271.116 77.7932 271.116 76.8363V76.1663C271.116 75.2112 270.693 74.7325 269.935 74.7325H260.056C259.296 74.7325 258.789 75.2112 258.789 76.1663V76.8363ZM261.322 52.4565C261.322 50.1621 262.925 48.3459 264.953 48.3459C266.98 48.3459 268.584 50.1621 268.584 52.4565C268.584 54.8474 266.98 56.6629 264.953 56.6629C262.925 56.6629 261.322 54.8474 261.322 52.4565ZM285.554 45H273.395C272.805 45 272.383 45.4781 272.383 46.1481V47.6766C272.383 48.3459 272.805 48.8247 273.395 48.8247H282.937C279.136 65.7463 274.831 87.9258 274.746 108.863C274.746 109.629 275.084 110.011 275.76 110.011H277.533C278.124 110.011 278.547 109.629 278.547 108.863C278.715 88.6921 282.514 66.4155 286.398 49.1105C286.566 48.5372 286.566 48.1549 286.566 47.6766V46.1481C286.566 45.4781 286.144 45 285.554 45ZM297.627 110.011H299.147C299.738 110.011 300.16 109.533 300.16 108.863V96.7214H302.186C302.862 96.7214 303.2 96.4356 303.2 95.6698V94.1413C303.2 93.4718 302.862 93.0895 302.186 93.0895H300.16V83.2424C300.16 82.573 299.738 82.1907 299.147 82.1907H297.627C297.036 82.1907 296.613 82.573 296.613 83.2424V93.0895H290.703C294.418 77.7932 298.218 61.8268 298.81 46.1481C298.81 45.3823 298.387 45 297.796 45H296.275C295.684 45 295.347 45.3823 295.347 46.1481C294.756 61.2534 291.125 77.4092 287.411 92.5151C287.242 92.9931 287.242 93.3754 287.242 93.8537V95.6698C287.242 96.3391 287.664 96.7214 288.256 96.7214H296.613V108.863C296.613 109.533 297.036 110.011 297.627 110.011Z" fill="white"/>
<path d="M57.656 521.11C57.656 526.563 54.704 531.852 47.078 531.852C39.493 531.852 36.213 526.809 36.213 520.905C36.213 513.976 40.395 510.614 44.864 511.475V516.272C42.486 515.698 39.78 517.338 39.78 520.946C39.78 524.144 42.486 526.522 46.914 526.522C51.547 526.522 54.048 524.103 54.048 520.864C54.048 517.379 51.506 515.698 48.759 516.149V511.352C54.294 510.532 57.656 514.919 57.656 521.11ZM43.388 491.068H51.465C53.843 491.068 54.376 490.33 53.884 488.649L57.164 488.936C58.23 492.831 56.836 495.045 54.171 495.496C56.016 496.726 57.697 498.817 57.697 502.466C57.697 505.91 56.139 509.518 52.203 509.518C47.57 509.518 45.971 505.336 45.725 496.07H43.019C40.764 496.07 39.329 497.259 39.329 499.76C39.329 502.999 42.035 504.024 44.208 502.753V507.509C40.641 509.231 36.213 506.73 36.213 499.514C36.213 493.979 38.673 491.068 43.388 491.068ZM49.866 496.07H48.308C48.431 502.097 49.743 504.27 51.957 504.27C53.597 504.27 54.458 502.835 54.458 500.867C54.458 497.259 51.711 496.07 49.866 496.07ZM36.213 474.041C36.213 468.875 39.78 464.283 46.545 464.283C53.187 464.283 57.656 468.629 57.656 474.328C57.656 478.059 55.688 480.519 53.966 481.708H63.888V486.915H36.91V481.831H40.149C38.181 480.478 36.213 477.854 36.213 474.041ZM54.048 475.64C54.048 472.114 51.26 469.367 46.709 469.367C42.117 469.367 39.78 472.237 39.78 475.558C39.78 478.797 42.158 481.708 46.914 481.708C51.424 481.708 54.048 479.084 54.048 475.64ZM43.388 444.382H51.465C53.843 444.382 54.376 443.644 53.884 441.963L57.164 442.25C58.23 446.145 56.836 448.359 54.171 448.81C56.016 450.04 57.697 452.131 57.697 455.78C57.697 459.224 56.139 462.832 52.203 462.832C47.57 462.832 45.971 458.65 45.725 449.384H43.019C40.764 449.384 39.329 450.573 39.329 453.074C39.329 456.313 42.035 457.338 44.208 456.067V460.823C40.641 462.545 36.213 460.044 36.213 452.828C36.213 447.293 38.673 444.382 43.388 444.382ZM49.866 449.384H48.308C48.431 455.411 49.743 457.584 51.957 457.584C53.597 457.584 54.458 456.149 54.458 454.181C54.458 450.573 51.711 449.384 49.866 449.384ZM36.213 427.519C36.213 422.681 39.001 420.221 42.773 420.221H57V425.428H44.003C41.42 425.428 39.739 426.822 39.739 429.651C39.739 433.218 42.609 435.022 45.725 435.022H57V440.229H36.91V435.145H40.354C38.468 434.12 36.213 432.193 36.213 427.519ZM36.213 404.016C36.213 399.178 39.001 396.718 42.773 396.718H57V401.925H44.003C41.42 401.925 39.739 403.319 39.739 406.148C39.739 409.715 42.609 411.519 45.725 411.519H57V416.726H36.91V411.642H40.354C38.468 410.617 36.213 408.69 36.213 404.016ZM43.388 375.675H51.465C53.843 375.675 54.376 374.937 53.884 373.256L57.164 373.543C58.23 377.438 56.836 379.652 54.171 380.103C56.016 381.333 57.697 383.424 57.697 387.073C57.697 390.517 56.139 394.125 52.203 394.125C47.57 394.125 45.971 389.943 45.725 380.677H43.019C40.764 380.677 39.329 381.866 39.329 384.367C39.329 387.606 42.035 388.631 44.208 387.36V392.116C40.641 393.838 36.213 391.337 36.213 384.121C36.213 378.586 38.673 375.675 43.388 375.675ZM49.866 380.677H48.308C48.431 386.704 49.743 388.877 51.957 388.877C53.597 388.877 54.458 387.442 54.458 385.474C54.458 381.866 51.711 380.677 49.866 380.677ZM39.452 346.055H29.94V340.848H57V345.932H53.925C55.77 347.367 57.656 349.868 57.656 353.558C57.656 358.888 54.253 363.808 47.201 363.808C40.518 363.808 36.213 359.462 36.213 353.353C36.213 349.827 37.566 347.49 39.452 346.055ZM54.048 352.205C54.048 348.556 50.932 345.973 47.078 345.973C42.445 345.973 39.821 348.679 39.821 352.246C39.821 355.69 42.281 358.519 46.914 358.519C51.342 358.519 54.048 355.854 54.048 352.205ZM34.737 332.202V337.409H29.899V332.202H34.737ZM57 332.202L57 337.409H36.91V332.202H57ZM99.656 523.242C99.656 529.392 96.663 533.902 91.907 531.975V527.342C94.572 528.736 96.376 526.522 96.376 523.037C96.376 520.167 95.146 518.035 93.342 518.035C88.422 518.035 92.358 532.303 84.527 532.303C80.058 532.303 78.213 527.588 78.213 523.037C78.213 516.723 81.493 513.402 85.224 515.083V519.347C83.297 518.445 81.452 519.962 81.452 523.365C81.452 525.497 82.272 527.711 83.953 527.711C88.258 527.711 84.609 513.238 92.768 513.238C97.524 513.238 99.656 518.199 99.656 523.242ZM78.213 500.893C78.213 494.169 83.215 489.741 89.611 491.258V506.51C93.875 506.264 96.212 504.214 96.212 500.688C96.212 497.408 94.49 495.686 92.03 496.014V491.381C97.032 490.684 99.615 495.399 99.615 500.852C99.615 507.33 95.597 511.512 89.119 511.512C82.682 511.512 78.213 507.453 78.213 500.893ZM86.659 506.346V496.014C83.666 495.645 81.575 497.859 81.575 501.016C81.575 503.927 83.174 505.813 86.659 506.346ZM99.369 482.006C99.369 485.532 97.401 487.377 93.957 487.377H82.559V489.837H78.91V487.377H75.384L72.473 482.293H78.91V478.644H82.559V482.293H93.014C94.982 482.293 95.679 481.514 95.679 480.366C95.679 479.669 95.433 478.808 95.269 478.521L99.041 479.136C99.246 479.833 99.369 481.022 99.369 482.006ZM99.369 471.115C99.369 474.641 97.401 476.486 93.957 476.486H82.559V478.946H78.91V476.486H75.384L72.473 471.402H78.91V467.753H82.559V471.402H93.014C94.982 471.402 95.679 470.623 95.679 469.475C95.679 468.778 95.433 467.917 95.269 467.63L99.041 468.245C99.246 468.942 99.369 470.131 99.369 471.115ZM85.388 448.266H93.465C95.843 448.266 96.376 447.528 95.884 445.847L99.164 446.134C100.23 450.029 98.836 452.243 96.171 452.694C98.016 453.924 99.697 456.015 99.697 459.664C99.697 463.108 98.139 466.716 94.203 466.716C89.57 466.716 87.971 462.534 87.725 453.268H85.019C82.764 453.268 81.329 454.457 81.329 456.958C81.329 460.197 84.035 461.222 86.208 459.951V464.707C82.641 466.429 78.213 463.928 78.213 456.712C78.213 451.177 80.673 448.266 85.388 448.266ZM91.866 453.268H90.308C90.431 459.295 91.743 461.468 93.957 461.468C95.597 461.468 96.458 460.033 96.458 458.065C96.458 454.457 93.711 453.268 91.866 453.268ZM78.213 431.403C78.213 426.565 81.001 424.105 84.773 424.105H99V429.312H86.003C83.42 429.312 81.739 430.706 81.739 433.535C81.739 437.102 84.609 438.906 87.725 438.906H99V444.113H78.91V439.029H82.354C80.468 438.004 78.213 436.077 78.213 431.403ZM99.369 414.46C99.369 417.986 97.401 419.831 93.957 419.831H82.559V422.291H78.91V419.831H75.384L72.473 414.747H78.91V411.098H82.559V414.747H93.014C94.982 414.747 95.679 413.968 95.679 412.82C95.679 412.123 95.433 411.262 95.269 410.975L99.041 411.59C99.246 412.287 99.369 413.476 99.369 414.46ZM85.388 391.611H93.465C95.843 391.611 96.376 390.873 95.884 389.192L99.164 389.479C100.23 393.374 98.836 395.588 96.171 396.039C98.016 397.269 99.697 399.36 99.697 403.009C99.697 406.453 98.139 410.061 94.203 410.061C89.57 410.061 87.971 405.879 87.725 396.613H85.019C82.764 396.613 81.329 397.802 81.329 400.303C81.329 403.542 84.035 404.567 86.208 403.296V408.052C82.641 409.774 78.213 407.273 78.213 400.057C78.213 394.522 80.673 391.611 85.388 391.611ZM91.866 396.613H90.308C90.431 402.64 91.743 404.813 93.957 404.813C95.597 404.813 96.458 403.378 96.458 401.41C96.458 397.802 93.711 396.613 91.866 396.613ZM82.272 369.541L78.91 367.45V365.031H105.929V370.197H96.048C98.016 371.632 99.656 374.215 99.656 377.782C99.656 383.112 96.253 388.032 89.201 388.032C82.518 388.032 78.213 383.686 78.213 377.577C78.213 373.518 80.017 370.976 82.272 369.541ZM96.089 376.429C96.089 372.78 93.014 370.238 89.119 370.238C84.486 370.238 81.862 372.903 81.862 376.47C81.862 379.914 84.322 382.743 88.996 382.743C93.424 382.743 96.089 380.078 96.089 376.429ZM90.185 346.791H78.91V341.584H99V346.668H95.679C97.524 347.816 99.697 349.866 99.697 354.212C99.697 359.132 96.909 361.592 93.137 361.592H78.91V356.385H91.907C94.49 356.385 96.171 354.95 96.171 352.121C96.171 348.554 93.301 346.791 90.185 346.791ZM85.388 320.582H93.465C95.843 320.582 96.376 319.844 95.884 318.163L99.164 318.45C100.23 322.345 98.836 324.559 96.171 325.01C98.016 326.24 99.697 328.331 99.697 331.98C99.697 335.424 98.139 339.032 94.203 339.032C89.57 339.032 87.971 334.85 87.725 325.584H85.019C82.764 325.584 81.329 326.773 81.329 329.274C81.329 332.513 84.035 333.538 86.208 332.267L86.208 337.023C82.641 338.745 78.213 336.244 78.213 329.028C78.213 323.493 80.673 320.582 85.388 320.582ZM91.866 325.584H90.308C90.431 331.611 91.743 333.784 93.957 333.784C95.597 333.784 96.458 332.349 96.458 330.381C96.458 326.773 93.711 325.584 91.866 325.584ZM99.369 310.278C99.369 313.804 97.401 315.649 93.957 315.649H82.559V318.109H78.91V315.649H75.384L72.473 310.565H78.91V306.916H82.559V310.565H93.014C94.982 310.565 95.679 309.786 95.679 308.638C95.679 307.941 95.433 307.08 95.269 306.793L99.041 307.408C99.246 308.105 99.369 309.294 99.369 310.278ZM99.369 299.388C99.369 302.914 97.401 304.759 93.957 304.759H82.559V307.219H78.91V304.759H75.384L72.473 299.675H78.91V296.026H82.559V299.675H93.014C94.982 299.675 95.679 298.896 95.679 297.748C95.679 297.051 95.433 296.19 95.269 295.903L99.041 296.518C99.246 297.215 99.369 298.404 99.369 299.388ZM99 288.88V294.087H78.91V288.921H81.739V288.88C80.304 288.511 78.213 286.953 78.213 283.919C78.213 279.245 83.461 277.728 89.242 280.762V284.985C85.06 283.017 82.272 283.591 82.272 286.01C82.272 287.937 84.076 288.88 86.495 288.88H99ZM99.656 266.802C99.656 273.731 95.556 278.405 88.955 278.405C82.354 278.405 78.213 273.731 78.213 266.802C78.213 259.873 82.313 255.322 88.955 255.322C95.474 255.322 99.656 259.914 99.656 266.802ZM96.048 266.802C96.048 263.276 93.547 260.529 88.955 260.529C84.281 260.529 81.821 263.276 81.821 266.802C81.821 270.369 84.281 273.075 88.955 273.075C93.629 273.075 96.048 270.369 96.048 266.802Z" fill="white"/>
</svg>
