<svg width="340" height="568" viewBox="0 0 340 568" fill="none" xmlns="http://www.w3.org/2000/svg">
<rect width="340" height="568" fill="#232050"/>
<g clip-path="url(#clip0_3_337)">
<rect x="13.5" y="15.5" width="312.275" height="537" rx="15.5" stroke="#FAFAFA" stroke-width="3"/>
<path d="M155 554H59V408.077C59.0062 407.226 59.2393 406.392 59.6753 405.661C60.1113 404.931 60.7343 404.33 61.4799 403.922L147.942 356.586C148.669 356.188 149.487 355.986 150.316 356.001C151.145 356.016 151.956 356.247 152.668 356.671C153.381 357.095 153.971 357.698 154.38 358.421C154.788 359.143 155.002 359.959 155 360.79V554Z" stroke="#FAFAFA" stroke-width="6" stroke-linecap="round"/>
<path d="M222 554H156V406L219.776 442.644C220.458 443.072 221.02 443.667 221.409 444.374C221.798 445.081 222.002 445.876 222 446.683V554Z" stroke="#FAFAFA" stroke-width="6" stroke-linecap="round"/>
<path d="M124 421H90" stroke="#FAFAFA" stroke-width="6" stroke-linecap="round"/>
<path d="M198 457H180" stroke="#FAFAFA" stroke-width="6" stroke-linecap="round"/>
<path d="M198 479H180" stroke="#FAFAFA" stroke-width="6" stroke-linecap="round"/>
<path d="M198 501H180" stroke="#FAFAFA" stroke-width="6" stroke-linecap="round"/>
<path d="M198 523H180" stroke="#FAFAFA" stroke-width="6" stroke-linecap="round"/>
<path d="M124 448H90" stroke="#FAFAFA" stroke-width="6" stroke-linecap="round"/>
<path d="M124 473H90" stroke="#FAFAFA" stroke-width="6" stroke-linecap="round"/>
<path d="M124 500H90" stroke="#FAFAFA" stroke-width="6" stroke-linecap="round"/>
<path d="M124 526H90" stroke="#FAFAFA" stroke-width="6" stroke-linecap="round"/>
<path d="M94.354 205.834H85.106V216H80.754V191.146H96.122V195.158H85.106V201.924H94.354V205.834ZM101.507 195.838C100.079 195.838 98.957 194.716 98.957 193.322C98.957 191.928 100.079 190.84 101.507 190.84C102.867 190.84 103.989 191.928 103.989 193.322C103.989 194.716 102.867 195.838 101.507 195.838ZM99.433 216V199.204H103.581V216H99.433ZM112.015 216H107.867V199.204H111.709L112.049 201.38C113.103 199.68 115.143 198.694 117.421 198.694C121.637 198.694 123.813 201.312 123.813 205.664V216H119.665V206.65C119.665 203.828 118.271 202.468 116.129 202.468C113.579 202.468 112.015 204.236 112.015 206.956V216ZM134.79 216.442C129.928 216.442 126.902 212.872 126.902 207.67C126.902 202.434 129.962 198.694 135.028 198.694C137.374 198.694 139.448 199.68 140.502 201.346V190.704H144.616V216H140.808L140.536 213.382C139.516 215.32 137.34 216.442 134.79 216.442ZM135.708 212.634C138.598 212.634 140.468 210.56 140.468 207.534C140.468 204.508 138.598 202.4 135.708 202.4C132.818 202.4 131.05 204.542 131.05 207.534C131.05 210.526 132.818 212.634 135.708 212.634ZM161.945 216H158.103V190.704H162.251V201.652C163.339 199.782 165.583 198.66 168.133 198.66C172.927 198.66 175.851 202.4 175.851 207.704C175.851 212.872 172.689 216.442 167.861 216.442C165.345 216.442 163.203 215.32 162.217 213.382L161.945 216ZM162.285 207.534C162.285 210.56 164.155 212.634 167.011 212.634C169.935 212.634 171.669 210.526 171.669 207.534C171.669 204.542 169.935 202.4 167.011 202.4C164.155 202.4 162.285 204.508 162.285 207.534ZM190.145 199.204H194.293V216H190.451L190.145 213.756C189.125 215.354 186.949 216.442 184.705 216.442C180.829 216.442 178.551 213.824 178.551 209.71V199.204H182.699V208.248C182.699 211.444 183.957 212.736 186.269 212.736C188.887 212.736 190.145 211.206 190.145 208.01V199.204ZM197.116 223.786V220.318H199.598C201.23 220.318 202.25 219.944 202.964 217.972L203.44 216.714L196.674 199.204H201.06L205.378 211.444L209.934 199.204H214.218L205.99 219.74C204.732 222.868 202.964 224.16 200.21 224.16C199.054 224.16 198.034 224.024 197.116 223.786ZM223.324 216.442C218.326 216.442 214.824 212.804 214.824 207.602C214.824 202.332 218.258 198.694 223.188 198.694C228.22 198.694 231.416 202.06 231.416 207.296V208.554L218.768 208.588C219.074 211.546 220.638 213.042 223.392 213.042C225.67 213.042 227.166 212.158 227.642 210.56H231.484C230.77 214.232 227.71 216.442 223.324 216.442ZM223.222 202.094C220.774 202.094 219.278 203.42 218.87 205.936H227.302C227.302 203.624 225.704 202.094 223.222 202.094ZM245.276 199.136V202.978H243.746C240.754 202.978 238.884 204.576 238.884 207.84V216H234.736V199.238H238.646L238.884 201.686C239.598 200.02 241.196 198.898 243.44 198.898C244.018 198.898 244.596 198.966 245.276 199.136ZM246.791 210.9H250.735C250.769 212.362 251.857 213.28 253.761 213.28C255.699 213.28 256.753 212.498 256.753 211.274C256.753 210.424 256.311 209.812 254.815 209.472L251.789 208.758C248.763 208.078 247.301 206.65 247.301 203.964C247.301 200.666 250.089 198.694 253.965 198.694C257.739 198.694 260.289 200.87 260.323 204.134H256.379C256.345 202.706 255.393 201.788 253.795 201.788C252.163 201.788 251.211 202.536 251.211 203.794C251.211 204.746 251.959 205.358 253.387 205.698L256.413 206.412C259.235 207.058 260.663 208.35 260.663 210.934C260.663 214.334 257.773 216.442 253.625 216.442C249.443 216.442 246.791 214.198 246.791 210.9Z" fill="#FAFAFA"/>
</g>
<path d="M145.804 120.074C139.588 120.074 133.43 120.067 127.272 120.087C126.789 120.088 126.601 119.938 126.484 119.476C125.577 115.917 125.072 112.307 125.007 108.627C124.932 104.304 125.43 100.061 126.542 95.8895C126.628 95.5632 126.742 95.4407 127.082 95.4412C134.58 95.4503 142.078 95.448 149.577 95.4492C149.651 95.4492 149.725 95.4669 149.833 95.4807C149.833 97.3663 149.833 99.2364 149.833 101.185C149.583 101.185 149.357 101.185 149.131 101.185C143.673 101.185 138.214 101.191 132.756 101.174C132.272 101.173 132.069 101.282 132.028 101.809C131.944 102.867 131.784 103.919 131.647 105.045C137.465 105.045 143.184 105.045 148.932 105.045C148.932 106.78 148.932 108.454 148.932 110.195C143.196 110.195 137.478 110.195 131.635 110.195C131.78 111.536 131.918 112.799 132.062 114.125C138.115 114.125 144.107 114.125 150.149 114.125C150.149 116.125 150.149 118.055 150.149 120.074C148.72 120.074 147.291 120.074 145.804 120.074Z" fill="#FAFAFA"/>
<path d="M180.256 116.651C178.071 118.847 175.394 119.848 172.435 119.925C167.248 120.06 162.057 120.041 156.867 120.085C156.481 120.088 156.095 120.086 155.681 120.086C155.681 111.856 155.681 103.699 155.681 95.4469C155.888 95.4469 156.094 95.4469 156.299 95.4469C160.452 95.4471 164.605 95.4298 168.758 95.4544C171.03 95.4678 173.299 95.5776 175.491 96.2854C179.968 97.7312 182.424 100.921 183.131 105.525C183.539 108.179 183.402 110.817 182.374 113.349C181.877 114.571 181.201 115.674 180.256 116.651ZM161.967 103.349C161.967 106.927 161.967 110.505 161.967 114.111C162.147 114.123 162.261 114.138 162.374 114.138C164.293 114.136 166.216 114.208 168.129 114.104C169.623 114.023 171.124 113.807 172.588 113.494C173.988 113.194 175.236 112.511 176.082 111.267C178.297 108.01 176.874 103.582 173.141 102.12C171.553 101.499 169.888 101.263 168.199 101.238C166.149 101.207 164.098 101.23 161.967 101.23C161.967 101.898 161.967 102.564 161.967 103.349Z" fill="#FAFAFA"/>
<path d="M205.892 120.193C201.842 120.735 197.858 120.902 193.979 119.506C189.801 118.001 187.374 114.99 186.629 110.617C186.182 107.989 186.254 105.373 187.174 102.845C188.464 99.2974 191.079 97.1312 194.56 95.939C197.618 94.8918 200.775 94.806 203.958 95.0553C206.311 95.2396 208.576 95.7331 210.645 96.938C213.342 98.5084 214.662 100.901 214.831 103.984C214.839 104.121 214.818 104.26 214.808 104.442C212.563 104.442 210.333 104.442 208.086 104.442C207.596 102.291 205.873 101.617 204.023 101.239C202.091 100.845 200.121 100.848 198.173 101.229C195.88 101.676 194.386 103.029 193.735 105.292C193.204 107.138 193.211 108.991 193.814 110.813C194.44 112.703 195.804 113.809 197.722 114.169C200.12 114.619 202.531 114.584 204.93 114.128C206.867 113.759 208.143 112.728 208.291 110.588C210.542 110.588 212.766 110.588 215.032 110.588C214.999 113.567 214.174 116.097 211.686 117.9C209.953 119.155 208.012 119.817 205.892 120.193Z" fill="#FAFAFA"/>
<path d="M130.714 127.983L130.611 128.143L130.364 128.254C130.346 128.22 130.328 128.187 130.311 128.153C130.308 128.13 130.305 128.095 130.308 128.055C130.311 128.016 130.321 127.932 130.374 127.841C130.474 127.902 130.586 127.951 130.714 127.983ZM130.714 127.983L130.681 128.112L130.795 128.061L130.795 128.06C130.758 128.012 130.736 127.997 130.714 127.983ZM179.973 150.965C159.784 155.692 139.916 146.017 130.529 128.564C130.606 128.678 130.676 128.747 130.736 128.8C132.852 131.302 135.21 133.558 137.947 135.414C142.155 138.268 146.76 140.155 151.813 140.885C161.85 142.335 170.801 139.782 178.625 133.368C181.714 130.836 184.205 127.781 186.185 124.327C186.275 124.17 186.336 124.115 186.378 124.089C186.417 124.066 186.49 124.037 186.666 124.037C193.414 124.05 200.162 124.049 206.91 124.048C208.335 124.048 209.761 124.048 211.186 124.048C209.48 128.346 207.191 132.218 204.292 135.729C197.872 143.503 189.784 148.668 179.973 150.965ZM130.485 128.471C130.48 128.466 130.476 128.461 130.471 128.456C130.467 128.449 130.464 128.442 130.46 128.436C130.459 128.433 130.457 128.431 130.456 128.428C130.46 128.43 130.464 128.431 130.468 128.432C130.486 128.438 130.504 128.444 130.523 128.449C130.538 128.454 130.554 128.458 130.57 128.463L130.54 128.516C130.536 128.513 130.527 128.507 130.517 128.499C130.506 128.49 130.495 128.481 130.485 128.471ZM130.443 128.404C130.443 128.404 130.443 128.404 130.443 128.404C130.434 128.387 130.425 128.37 130.416 128.353L130.534 128.263L130.443 128.404ZM130.669 128.158L130.795 128.061L130.631 128.354L130.611 128.391L130.618 128.36L130.669 128.158Z" stroke="#FAFAFA"/>
<mask id="path-19-inside-1_3_337" fill="white">
<path d="M129.494 126.824C129.455 126.993 129.417 127.161 129.376 127.374C128.754 126.078 128.134 124.739 127.515 123.399C127.548 123.385 127.581 123.371 127.614 123.356C128.639 124.872 129.665 126.388 130.702 127.944C130.11 127.831 129.863 127.316 129.519 126.811C129.447 126.738 129.417 126.716 129.373 126.688C129.357 126.667 129.348 126.661 129.338 126.656C129.352 126.672 129.365 126.688 129.392 126.73C129.427 126.787 129.457 126.81 129.494 126.824Z"/>
</mask>
<path d="M129.494 126.824C129.455 126.993 129.417 127.161 129.376 127.374C128.754 126.078 128.134 124.739 127.515 123.399C127.548 123.385 127.581 123.371 127.614 123.356C128.639 124.872 129.665 126.388 130.702 127.944C130.11 127.831 129.863 127.316 129.519 126.811C129.447 126.738 129.417 126.716 129.373 126.688C129.357 126.667 129.348 126.661 129.338 126.656C129.352 126.672 129.365 126.688 129.392 126.73C129.427 126.787 129.457 126.81 129.494 126.824Z" fill="#FAFAFA"/>
<path d="M129.494 126.824L130.469 127.045L130.659 126.207L129.859 125.893L129.494 126.824ZM129.376 127.374L128.475 127.807L129.784 130.532L130.358 127.563L129.376 127.374ZM127.515 123.399L127.117 122.482L126.177 122.89L126.607 123.819L127.515 123.399ZM127.614 123.356L128.442 122.796L127.977 122.109L127.215 122.439L127.614 123.356ZM130.702 127.944L130.514 128.926L132.857 129.373L131.534 127.389L130.702 127.944ZM129.519 126.811L130.345 126.248L130.296 126.175L130.234 126.112L129.519 126.811ZM129.373 126.688L128.578 127.294L128.683 127.431L128.828 127.526L129.373 126.688ZM129.338 126.656L129.829 125.785L128.573 127.3L129.338 126.656ZM129.392 126.73L130.24 126.2L130.235 126.193L129.392 126.73ZM128.518 126.603C128.48 126.772 128.439 126.954 128.394 127.184L130.358 127.563C130.396 127.368 130.431 127.213 130.469 127.045L128.518 126.603ZM130.278 126.941C129.659 125.653 129.043 124.32 128.423 122.98L126.607 123.819C127.226 125.157 127.849 126.504 128.475 127.807L130.278 126.941ZM127.913 124.317C127.946 124.302 127.979 124.288 128.012 124.274L127.215 122.439C127.183 122.453 127.15 122.468 127.117 122.482L127.913 124.317ZM126.785 123.917C127.811 125.433 128.835 126.946 129.87 128.499L131.534 127.389C130.495 125.83 129.467 124.312 128.442 122.796L126.785 123.917ZM130.89 126.962C130.878 126.959 130.854 126.962 130.772 126.869C130.725 126.814 130.67 126.74 130.597 126.63C130.546 126.553 130.425 126.365 130.345 126.248L128.692 127.373C128.806 127.541 129.033 127.916 129.262 128.18C129.539 128.498 129.934 128.815 130.514 128.926L130.89 126.962ZM130.234 126.112C130.113 125.988 130.025 125.919 129.919 125.85L128.828 127.526C128.835 127.531 128.832 127.529 128.826 127.524C128.822 127.522 128.818 127.519 128.814 127.515C128.809 127.512 128.804 127.508 128.8 127.505C128.784 127.491 128.781 127.487 128.803 127.509L130.234 126.112ZM130.168 126.081C130.127 126.027 130.069 125.961 129.992 125.896C129.911 125.829 129.837 125.789 129.829 125.785L128.847 127.527C128.849 127.528 128.784 127.493 128.715 127.436C128.649 127.381 128.604 127.328 128.578 127.294L130.168 126.081ZM128.573 127.3C128.577 127.305 128.575 127.302 128.572 127.299C128.568 127.294 128.564 127.288 128.559 127.282C128.549 127.269 128.545 127.262 128.548 127.266L130.235 126.193C130.179 126.105 130.138 126.053 130.103 126.012L128.573 127.3ZM128.543 127.259C128.664 127.452 128.847 127.645 129.128 127.755L129.859 125.893C129.935 125.923 130.025 125.972 130.109 126.048C130.184 126.115 130.226 126.177 130.24 126.2L128.543 127.259Z" fill="#FAFAFA" mask="url(#path-19-inside-1_3_337)"/>
<mask id="path-21-inside-2_3_337" fill="white">
<path d="M129.374 127.451C129.412 127.472 129.452 127.527 129.491 127.619C129.452 127.599 129.413 127.543 129.374 127.451Z"/>
</mask>
<path d="M129.374 127.451C129.412 127.472 129.452 127.527 129.491 127.619C129.452 127.599 129.413 127.543 129.374 127.451Z" fill="#FAFAFA"/>
<path d="M129.374 127.451L129.84 126.567L127.312 125.233L128.457 127.852L129.374 127.451ZM129.491 127.619L129.032 128.507L131.52 129.795L130.409 127.223L129.491 127.619ZM128.907 128.336C128.731 128.243 128.641 128.122 128.615 128.085C128.582 128.038 128.57 128.008 128.573 128.015L130.409 127.223C130.373 127.138 130.322 127.035 130.249 126.932C130.184 126.839 130.055 126.68 129.84 126.567L128.907 128.336ZM129.951 126.731C130.134 126.826 130.227 126.952 130.252 126.988C130.284 127.034 130.295 127.062 130.29 127.051L128.457 127.852C128.492 127.932 128.542 128.034 128.614 128.136C128.678 128.227 128.809 128.392 129.032 128.507L129.951 126.731Z" fill="#FAFAFA" mask="url(#path-21-inside-2_3_337)"/>
<mask id="path-23-inside-3_3_337" fill="white">
<path d="M131.08 128.412C131.036 128.399 130.981 128.352 130.922 128.266C130.968 128.277 131.018 128.327 131.08 128.412Z"/>
</mask>
<path d="M131.08 128.412C131.036 128.399 130.981 128.352 130.922 128.266C130.968 128.277 131.018 128.327 131.08 128.412Z" fill="#FAFAFA"/>
<path d="M131.08 128.412L130.793 129.37L133.627 130.219L131.889 127.825L131.08 128.412ZM130.922 128.266L131.158 127.294L128.641 126.682L130.095 128.827L130.922 128.266ZM131.367 127.454C131.539 127.506 131.643 127.594 131.681 127.628C131.726 127.669 131.747 127.7 131.75 127.704L130.095 128.827C130.185 128.96 130.406 129.255 130.793 129.37L131.367 127.454ZM130.686 129.237C130.463 129.183 130.334 129.063 130.305 129.034C130.266 128.998 130.253 128.976 130.27 129L131.889 127.825C131.844 127.764 131.776 127.674 131.686 127.588C131.604 127.51 131.428 127.359 131.158 127.294L130.686 129.237Z" fill="#FAFAFA" mask="url(#path-23-inside-3_3_337)"/>
<mask id="path-25-inside-4_3_337" fill="white">
<path d="M130.815 128.096C130.805 128.092 130.811 128.095 130.811 128.098C130.811 128.1 130.825 128.101 130.815 128.096Z"/>
</mask>
<path d="M130.815 128.096C130.805 128.092 130.811 128.095 130.811 128.098C130.811 128.1 130.825 128.101 130.815 128.096Z" fill="#FAFAFA"/>
<path d="M130.815 128.096L130.399 129.006L130.399 129.006L130.815 128.096ZM130.811 128.098L131.811 128.073L131.811 128.072L130.811 128.098ZM131.231 127.187C131.229 127.186 131.223 127.184 131.217 127.181C131.214 127.179 131.192 127.17 131.165 127.159C131.152 127.154 131.119 127.142 131.076 127.13C131.066 127.127 130.918 127.082 130.728 127.097C130.63 127.105 130.384 127.14 130.154 127.339C129.88 127.577 129.802 127.894 129.81 128.127C129.816 128.321 129.878 128.462 129.902 128.516C129.933 128.581 129.964 128.629 129.98 128.653C130.027 128.722 130.084 128.784 130.061 128.757C130.061 128.757 130.06 128.757 130.06 128.756C130.059 128.755 130.058 128.755 130.057 128.754C130.056 128.751 130.053 128.748 130.049 128.744C130.043 128.737 130.033 128.725 130.021 128.709C130 128.683 129.958 128.626 129.918 128.547C129.88 128.472 129.817 128.323 129.812 128.123L131.811 128.072C131.806 127.872 131.742 127.722 131.704 127.647C131.664 127.567 131.621 127.509 131.6 127.482C131.588 127.467 131.578 127.454 131.571 127.446C131.568 127.442 131.565 127.439 131.563 127.437C131.561 127.435 131.559 127.433 131.559 127.433C131.535 127.405 131.592 127.467 131.639 127.535C131.655 127.559 131.686 127.608 131.716 127.673C131.741 127.726 131.803 127.868 131.809 128.062C131.816 128.295 131.739 128.611 131.465 128.849C131.235 129.049 130.989 129.083 130.891 129.091C130.701 129.106 130.553 129.061 130.544 129.058C130.501 129.046 130.468 129.034 130.456 129.029C130.429 129.019 130.409 129.01 130.407 129.009C130.404 129.008 130.402 129.007 130.401 129.007C130.4 129.006 130.399 129.006 130.399 129.006L131.231 127.187ZM129.812 128.122C129.823 128.586 130.128 128.837 130.222 128.906C130.34 128.992 130.449 129.032 130.5 129.049C130.606 129.084 130.72 129.102 130.837 129.099C130.878 129.099 131.034 129.095 131.214 129.018C131.307 128.978 131.499 128.879 131.647 128.659C131.824 128.398 131.855 128.091 131.782 127.83C131.721 127.613 131.604 127.474 131.548 127.415C131.484 127.346 131.424 127.301 131.388 127.277C131.318 127.228 131.257 127.199 131.231 127.187L130.399 129.006C130.375 128.995 130.316 128.967 130.247 128.919C130.212 128.895 130.152 128.85 130.089 128.782C130.033 128.723 129.916 128.584 129.855 128.368C129.783 128.107 129.813 127.8 129.99 127.539C130.138 127.32 130.33 127.221 130.422 127.181C130.602 127.104 130.757 127.101 130.797 127.1C130.912 127.098 131.023 127.115 131.127 127.149C131.176 127.166 131.285 127.205 131.402 127.291C131.495 127.359 131.8 127.61 131.811 128.073L129.812 128.122Z" fill="#FAFAFA" mask="url(#path-25-inside-4_3_337)"/>
<mask id="path-27-inside-5_3_337" fill="white">
<path d="M129.379 126.704C129.365 126.688 129.352 126.672 129.338 126.656C129.348 126.661 129.357 126.667 129.373 126.688C129.379 126.704 129.379 126.704 129.379 126.704Z"/>
</mask>
<path d="M129.379 126.704C129.365 126.688 129.352 126.672 129.338 126.656C129.348 126.661 129.357 126.667 129.373 126.688C129.379 126.704 129.379 126.704 129.379 126.704Z" fill="#FAFAFA"/>
<path d="M129.379 126.704L128.614 127.348L129.45 128.341L130.197 127.279L129.379 126.704ZM129.338 126.656L129.829 125.785L128.573 127.3L129.338 126.656ZM129.373 126.688L130.306 126.329L130.257 126.201L130.176 126.091L129.373 126.688ZM130.144 126.06C130.13 126.044 130.116 126.027 130.103 126.012L128.573 127.3C128.587 127.317 128.6 127.332 128.614 127.348L130.144 126.06ZM128.847 127.527C128.849 127.528 128.782 127.492 128.711 127.432C128.642 127.375 128.597 127.32 128.571 127.284L130.176 126.091C130.134 126.035 130.076 125.967 129.996 125.9C129.913 125.831 129.837 125.789 129.829 125.785L128.847 127.527ZM128.44 127.047C128.439 127.046 128.438 127.041 128.435 127.035C128.433 127.029 128.428 127.015 128.423 126.998C128.42 126.987 128.406 126.944 128.396 126.888C128.391 126.863 128.38 126.8 128.379 126.718C128.378 126.677 128.38 126.606 128.396 126.52C128.404 126.476 128.418 126.419 128.442 126.355C128.454 126.323 128.469 126.287 128.488 126.249C128.498 126.231 128.509 126.211 128.521 126.191C128.527 126.181 128.533 126.171 128.54 126.16C128.543 126.155 128.548 126.147 128.55 126.145C128.555 126.137 128.561 126.129 129.379 126.704C130.197 127.279 130.202 127.271 130.208 127.264C130.209 127.261 130.215 127.253 130.218 127.248C130.225 127.238 130.231 127.228 130.237 127.217C130.249 127.197 130.26 127.178 130.269 127.159C130.289 127.121 130.304 127.085 130.316 127.053C130.34 126.989 130.353 126.932 130.362 126.888C130.378 126.802 130.379 126.731 130.379 126.69C130.378 126.608 130.366 126.545 130.362 126.519C130.351 126.463 130.338 126.419 130.333 126.406C130.323 126.371 130.312 126.342 130.306 126.329L128.44 127.047Z" fill="#FAFAFA" mask="url(#path-27-inside-5_3_337)"/>
<path d="M129.495 126.822C129.484 126.818 129.473 126.814 129.463 126.808L129.476 126.799L129.495 126.822ZM129.495 126.822C129.496 126.822 129.496 126.821 129.496 126.818L129.495 126.822ZM129.379 126.703C129.39 126.707 129.399 126.711 129.409 126.716L129.41 126.718L129.396 126.727L129.379 126.703ZM129.379 126.703C129.379 126.703 129.379 126.703 129.379 126.703L129.379 126.703ZM129.411 126.719L129.475 126.798L129.461 126.806C129.456 126.803 129.45 126.799 129.445 126.795L129.396 126.727L129.411 126.719Z" fill="#FAFAFA" stroke="#FAFAFA"/>
<path d="M209.221 87.6766L209.324 87.5165L209.571 87.4059C209.588 87.4395 209.606 87.4731 209.624 87.5068C209.627 87.5302 209.629 87.5645 209.626 87.6052C209.624 87.6436 209.613 87.7279 209.561 87.8185C209.461 87.7575 209.349 87.7089 209.221 87.6766ZM209.221 87.6766L209.253 87.5481L209.139 87.5993L209.139 87.5995C209.176 87.6481 209.199 87.6623 209.221 87.6766ZM159.961 64.6949C180.15 59.968 200.018 69.6427 209.406 87.0963C209.328 86.9818 209.259 86.9131 209.199 86.8599C207.082 84.358 204.724 82.102 201.987 80.2456C197.779 77.3916 193.175 75.5048 188.122 74.7748C178.085 73.3248 169.133 75.8782 161.309 82.2916C158.221 84.8233 155.73 87.8788 153.75 91.3327C153.66 91.4899 153.598 91.5449 153.556 91.5703C153.517 91.5938 153.444 91.6231 153.269 91.6228C146.52 91.6099 139.772 91.6108 133.025 91.6117C131.599 91.6119 130.174 91.6121 128.748 91.6122C130.455 87.314 132.743 83.4414 135.643 79.9304C142.062 72.1569 150.151 66.9918 159.961 64.6949ZM209.449 87.1885C209.454 87.1936 209.459 87.1987 209.463 87.2038C209.467 87.2105 209.471 87.2173 209.474 87.2241C209.476 87.2266 209.477 87.2291 209.478 87.2316C209.474 87.2303 209.47 87.229 209.467 87.2277C209.449 87.2217 209.43 87.216 209.412 87.2105C209.396 87.2059 209.38 87.2015 209.364 87.1972L209.394 87.1438C209.398 87.1466 209.407 87.1529 209.417 87.1607C209.429 87.1696 209.439 87.179 209.449 87.1885ZM209.491 87.2561C209.491 87.2561 209.491 87.2562 209.491 87.2562C209.5 87.2729 209.509 87.2896 209.518 87.3063L209.4 87.3972L209.491 87.2561ZM209.265 87.5019L209.139 87.5991L209.303 87.3058L209.324 87.2692L209.316 87.2997L209.265 87.5019Z" stroke="#FAFAFA"/>
<mask id="path-31-inside-6_3_337" fill="white">
<path d="M210.44 88.8356C210.478 88.6671 210.517 88.4987 210.558 88.2861C211.18 89.5815 211.8 90.921 212.419 92.2605C212.386 92.2748 212.353 92.2891 212.32 92.3033C211.295 90.7874 210.269 89.2715 209.232 87.716C209.824 87.8291 210.071 88.3435 210.415 88.8492C210.486 88.9221 210.517 88.9439 210.56 88.9721C210.576 88.993 210.586 88.9984 210.596 89.0038C210.582 88.9878 210.569 88.9718 210.542 88.9303C210.506 88.873 210.477 88.8499 210.44 88.8356Z"/>
</mask>
<path d="M210.44 88.8356C210.478 88.6671 210.517 88.4987 210.558 88.2861C211.18 89.5815 211.8 90.921 212.419 92.2605C212.386 92.2748 212.353 92.2891 212.32 92.3033C211.295 90.7874 210.269 89.2715 209.232 87.716C209.824 87.8291 210.071 88.3435 210.415 88.8492C210.486 88.9221 210.517 88.9439 210.56 88.9721C210.576 88.993 210.586 88.9984 210.596 89.0038C210.582 88.9878 210.569 88.9718 210.542 88.9303C210.506 88.873 210.477 88.8499 210.44 88.8356Z" fill="#FAFAFA"/>
<path d="M210.44 88.8356L209.465 88.6148L209.275 89.4528L210.075 89.7665L210.44 88.8356ZM210.558 88.2861L211.459 87.853L210.15 85.1276L209.576 88.0963L210.558 88.2861ZM212.419 92.2605L212.817 93.1778L213.756 92.7701L213.327 91.8407L212.419 92.2605ZM212.32 92.3033L211.492 92.8637L211.957 93.5512L212.718 93.2206L212.32 92.3033ZM209.232 87.716L209.419 86.7338L207.077 86.2863L208.4 88.2708L209.232 87.716ZM210.415 88.8492L209.589 89.4118L209.638 89.4846L209.7 89.5476L210.415 88.8492ZM210.56 88.9721L211.356 88.3656L211.251 88.2284L211.106 88.1342L210.56 88.9721ZM210.596 89.0038L210.105 89.875L211.36 88.3596L210.596 89.0038ZM210.542 88.9303L209.694 89.4596L209.699 89.4672L210.542 88.9303ZM211.416 89.0564C211.454 88.8878 211.495 88.7056 211.54 88.4759L209.576 88.0963C209.538 88.2917 209.503 88.4464 209.465 88.6148L211.416 89.0564ZM209.656 88.7192C210.275 90.0068 210.891 91.3395 211.511 92.6802L213.327 91.8407C212.708 90.5025 212.085 89.1562 211.459 87.853L209.656 88.7192ZM212.021 91.3432C211.988 91.3574 211.955 91.3718 211.922 91.3861L212.718 93.2206C212.751 93.2063 212.784 93.1921 212.817 93.1778L212.021 91.3432ZM213.148 91.743C212.123 90.2266 211.099 88.7135 210.064 87.1612L208.4 88.2708C209.439 89.8295 210.467 91.3482 211.492 92.8637L213.148 91.743ZM209.044 88.6983C209.055 88.7004 209.08 88.6974 209.162 88.7911C209.209 88.8461 209.263 88.92 209.337 89.0298C209.388 89.1067 209.509 89.2953 209.589 89.4118L211.242 88.2867C211.128 88.1191 210.901 87.7442 210.672 87.4796C210.395 87.1614 210 86.8447 209.419 86.7338L209.044 88.6983ZM209.7 89.5476C209.821 89.6723 209.909 89.741 210.015 89.81L211.106 88.1342C211.099 88.1292 211.102 88.1311 211.108 88.1355C211.111 88.138 211.116 88.141 211.12 88.1446C211.125 88.1482 211.129 88.1517 211.134 88.1551C211.15 88.1686 211.152 88.1728 211.131 88.1508L209.7 89.5476ZM209.765 89.5786C209.807 89.633 209.864 89.6991 209.942 89.7636C210.023 89.8303 210.096 89.8703 210.105 89.875L211.087 88.1327C211.085 88.1319 211.149 88.1665 211.219 88.2239C211.285 88.2791 211.33 88.3321 211.356 88.3656L209.765 89.5786ZM211.36 88.3596C211.356 88.3548 211.359 88.3574 211.362 88.361C211.365 88.3656 211.37 88.3715 211.375 88.3781C211.385 88.3911 211.389 88.3981 211.386 88.3933L209.699 89.4672C209.754 89.5549 209.796 89.607 209.831 89.6481L211.36 88.3596ZM211.391 88.401C211.27 88.2074 211.087 88.0152 210.805 87.9046L210.075 89.7665C209.999 89.7366 209.909 89.6876 209.825 89.612C209.749 89.5446 209.708 89.4825 209.694 89.4596L211.391 88.401Z" fill="#FAFAFA" mask="url(#path-31-inside-6_3_337)"/>
<mask id="path-33-inside-7_3_337" fill="white">
<path d="M210.561 88.2085C210.522 88.1881 210.482 88.1325 210.443 88.0409C210.482 88.0611 210.521 88.1171 210.561 88.2085Z"/>
</mask>
<path d="M210.561 88.2085C210.522 88.1881 210.482 88.1325 210.443 88.0409C210.482 88.0611 210.521 88.1171 210.561 88.2085Z" fill="#FAFAFA"/>
<path d="M210.561 88.2085L210.094 89.0929L212.622 90.427L211.477 87.808L210.561 88.2085ZM210.443 88.0409L210.902 87.1528L208.414 85.8649L209.525 88.4374L210.443 88.0409ZM211.027 87.3241C211.203 87.4169 211.293 87.5378 211.319 87.5751C211.352 87.6218 211.364 87.6516 211.361 87.6444L209.525 88.4374C209.561 88.5218 209.612 88.6251 209.685 88.7277C209.75 88.8208 209.879 88.9797 210.094 89.0929L211.027 87.3241ZM209.983 88.929C209.8 88.8342 209.707 88.7076 209.682 88.6717C209.65 88.6259 209.639 88.5976 209.644 88.609L211.477 87.808C211.442 87.728 211.392 87.6261 211.32 87.5243C211.256 87.4325 211.125 87.2678 210.902 87.1528L209.983 88.929Z" fill="#FAFAFA" mask="url(#path-33-inside-7_3_337)"/>
<mask id="path-35-inside-8_3_337" fill="white">
<path d="M208.854 87.2474C208.897 87.2604 208.952 87.3076 209.011 87.3943C208.965 87.3831 208.916 87.3324 208.854 87.2474Z"/>
</mask>
<path d="M208.854 87.2474C208.897 87.2604 208.952 87.3076 209.011 87.3943C208.965 87.3831 208.916 87.3324 208.854 87.2474Z" fill="#FAFAFA"/>
<path d="M208.854 87.2474L209.141 86.2895L206.307 85.4408L208.045 87.8349L208.854 87.2474ZM209.011 87.3943L208.775 88.366L211.293 88.9774L209.839 86.8331L209.011 87.3943ZM208.567 88.2054C208.394 88.1537 208.29 88.066 208.253 88.0318C208.207 87.9906 208.186 87.9596 208.184 87.9554L209.839 86.8331C209.748 86.6994 209.527 86.4052 209.141 86.2895L208.567 88.2054ZM209.247 86.4225C209.471 86.4768 209.599 86.597 209.629 86.6253C209.667 86.6617 209.68 86.6836 209.663 86.66L208.045 87.8349C208.089 87.8963 208.158 87.986 208.248 88.0717C208.329 88.1494 208.506 88.3006 208.775 88.366L209.247 86.4225Z" fill="#FAFAFA" mask="url(#path-35-inside-8_3_337)"/>
<mask id="path-37-inside-9_3_337" fill="white">
<path d="M209.119 87.5634C209.129 87.5679 209.122 87.5647 209.122 87.5622C209.122 87.5597 209.109 87.5588 209.119 87.5634Z"/>
</mask>
<path d="M209.119 87.5634C209.129 87.5679 209.122 87.5647 209.122 87.5622C209.122 87.5597 209.109 87.5588 209.119 87.5634Z" fill="#FAFAFA"/>
<path d="M209.119 87.5634L209.535 86.6541L209.535 86.6541L209.119 87.5634ZM209.122 87.5622L208.123 87.5867L208.123 87.5875L209.122 87.5622ZM208.703 88.4726C208.705 88.4735 208.71 88.4761 208.717 88.4792C208.72 88.4805 208.742 88.4901 208.769 88.5005C208.782 88.5053 208.815 88.5177 208.858 88.5296C208.868 88.5323 209.016 88.5779 209.206 88.5623C209.304 88.5543 209.55 88.5202 209.78 88.3209C210.054 88.0829 210.132 87.7662 210.124 87.5332C210.118 87.3392 210.056 87.1974 210.031 87.1443C210.001 87.0788 209.97 87.0306 209.954 87.0065C209.907 86.9377 209.849 86.8758 209.873 86.9027C209.873 86.9027 209.874 86.9032 209.874 86.9037C209.875 86.9043 209.875 86.9052 209.876 86.9063C209.878 86.9084 209.881 86.9116 209.884 86.9155C209.891 86.9232 209.901 86.9353 209.913 86.9505C209.934 86.9772 209.976 87.0338 210.016 87.1133C210.053 87.1881 210.117 87.337 210.122 87.5369L208.123 87.5875C208.128 87.7881 208.192 87.9376 208.23 88.0131C208.27 88.0932 208.312 88.1504 208.334 88.1777C208.346 88.1932 208.356 88.2056 208.363 88.2135C208.366 88.2176 208.369 88.2209 208.371 88.2232C208.373 88.2253 208.375 88.227 208.375 88.2271C208.399 88.2545 208.341 88.1929 208.295 88.1244C208.279 88.1004 208.248 88.0522 208.218 87.9868C208.193 87.9338 208.131 87.792 208.125 87.598C208.117 87.365 208.195 87.0484 208.469 86.8104C208.699 86.6111 208.945 86.577 209.043 86.569C209.233 86.5535 209.381 86.599 209.39 86.6017C209.433 86.6135 209.466 86.6257 209.478 86.6304C209.505 86.6405 209.525 86.6496 209.527 86.6503C209.53 86.6517 209.532 86.6527 209.533 86.6532C209.534 86.6537 209.535 86.6541 209.535 86.6541L208.703 88.4726ZM210.122 87.5377C210.111 87.074 209.806 86.8227 209.712 86.7542C209.594 86.6678 209.484 86.6277 209.434 86.611C209.328 86.576 209.214 86.558 209.097 86.5603C209.056 86.5611 208.9 86.5644 208.719 86.6422C208.627 86.682 208.435 86.781 208.287 87.0006C208.11 87.262 208.079 87.5688 208.152 87.8296C208.213 88.0467 208.33 88.1855 208.386 88.2453C208.45 88.3135 208.51 88.3586 208.545 88.383C208.615 88.4317 208.677 88.4607 208.703 88.4727L209.535 86.6541C209.559 86.665 209.618 86.6929 209.687 86.7409C209.722 86.7648 209.781 86.8096 209.845 86.8774C209.901 86.9368 210.018 87.0753 210.079 87.2922C210.151 87.5528 210.12 87.8593 209.944 88.1206C209.796 88.3399 209.604 88.4388 209.512 88.4785C209.332 88.556 209.177 88.5591 209.137 88.5599C209.022 88.5622 208.911 88.5446 208.807 88.5103C208.758 88.494 208.649 88.4544 208.531 88.3684C208.438 88.3004 208.134 88.0498 208.123 87.5867L210.122 87.5377Z" fill="#FAFAFA" mask="url(#path-37-inside-9_3_337)"/>
<mask id="path-39-inside-10_3_337" fill="white">
<path d="M210.555 88.9557C210.569 88.9718 210.582 88.9878 210.596 89.0039C210.586 88.9985 210.576 88.993 210.561 88.9719C210.555 88.9562 210.555 88.9557 210.555 88.9557Z"/>
</mask>
<path d="M210.555 88.9557C210.569 88.9718 210.582 88.9878 210.596 89.0039C210.586 88.9985 210.576 88.993 210.561 88.9719C210.555 88.9562 210.555 88.9557 210.555 88.9557Z" fill="#FAFAFA"/>
<path d="M210.555 88.9557L211.32 88.3115L210.484 87.3185L209.737 88.3805L210.555 88.9557ZM210.596 89.0039L210.105 89.8751L211.361 88.3597L210.596 89.0039ZM210.561 88.9719L209.627 89.3309L209.676 89.4586L209.758 89.5684L210.561 88.9719ZM209.79 89.5999C209.804 89.6159 209.818 89.6324 209.831 89.6482L211.361 88.3597C211.347 88.3432 211.334 88.3276 211.32 88.3115L209.79 89.5999ZM211.087 88.1328C211.085 88.132 211.152 88.1677 211.223 88.2275C211.291 88.2849 211.337 88.3402 211.363 88.3754L209.758 89.5684C209.8 89.6247 209.858 89.6933 209.938 89.7601C210.02 89.8292 210.096 89.8704 210.105 89.8751L211.087 88.1328ZM211.494 88.6129C211.494 88.614 211.496 88.6185 211.499 88.6252C211.501 88.6312 211.505 88.6443 211.511 88.6619C211.514 88.6733 211.527 88.7156 211.538 88.7717C211.543 88.7971 211.554 88.8601 211.555 88.9416C211.556 88.9829 211.554 89.0535 211.538 89.1393C211.53 89.1837 211.516 89.2406 211.492 89.3045C211.48 89.3369 211.465 89.3726 211.446 89.4104C211.436 89.4293 211.425 89.4489 211.413 89.469C211.407 89.4791 211.401 89.4893 211.394 89.4996C211.391 89.5047 211.386 89.5125 211.384 89.5151C211.379 89.523 211.373 89.5308 210.555 88.9557C209.737 88.3805 209.732 88.3884 209.726 88.3962C209.724 88.3988 209.719 88.4066 209.716 88.4118C209.709 88.4221 209.703 88.4323 209.697 88.4423C209.685 88.4624 209.674 88.4821 209.664 88.501C209.645 88.5387 209.63 88.5744 209.618 88.6068C209.594 88.6707 209.58 88.7276 209.572 88.7721C209.556 88.8579 209.555 88.9285 209.555 88.9699C209.556 89.0515 209.567 89.1146 209.572 89.1403C209.583 89.197 209.596 89.2405 209.6 89.2539C209.611 89.2885 209.622 89.3173 209.627 89.3309L211.494 88.6129Z" fill="#FAFAFA" mask="url(#path-39-inside-10_3_337)"/>
<path d="M210.439 88.8376C210.45 88.8413 210.461 88.8459 210.471 88.8519L210.458 88.8606L210.439 88.8376ZM210.439 88.8376C210.439 88.8382 210.438 88.8391 210.438 88.8418L210.439 88.8376ZM210.555 88.9565C210.545 88.9531 210.535 88.949 210.525 88.9438L210.524 88.942L210.538 88.9333L210.555 88.9565ZM210.555 88.9565C210.555 88.9565 210.555 88.9565 210.555 88.9563L210.555 88.9565ZM210.523 88.9404L210.459 88.8614L210.473 88.8533C210.478 88.8568 210.484 88.8607 210.489 88.8651L210.538 88.9329L210.523 88.9404Z" fill="#FAFAFA" stroke="#FAFAFA"/>
<defs>
<clipPath id="clip0_3_337">
<rect width="315.275" height="540" fill="white" transform="translate(12 14)"/>
</clipPath>
</defs>
</svg>
