<svg width="208" height="208" viewBox="0 0 208 208" fill="none" xmlns="http://www.w3.org/2000/svg">
<g clip-path="url(#clip0_70_229)">
<path d="M16.7891 149.177C17.8488 150.374 18.8732 151.605 19.9759 152.762C22.1578 155.05 24.2774 157.413 26.6187 159.529C29.2084 161.869 31.9724 164.025 34.7493 166.145C36.2239 167.271 37.8678 168.182 39.4679 169.135C45.1327 172.51 51.2089 174.938 57.5663 176.598C62.5262 177.893 67.5599 178.889 72.7366 178.842C75.6851 178.815 78.6492 179.043 81.5798 178.815C86.9916 178.395 92.3113 177.428 97.536 175.841C103.133 174.141 108.469 171.878 113.486 168.925C116.419 167.199 119.233 165.219 121.888 163.088C124.828 160.729 127.65 158.191 130.3 155.509C134.049 151.714 137.163 147.395 139.887 142.801C140.31 142.087 140.895 141.469 141.619 140.787C160.557 140.769 179.281 140.771 198.005 140.772C197.962 141.466 198.115 142.251 197.842 142.838C196.36 146.021 194.9 149.226 193.189 152.287C191.125 155.981 188.937 159.619 186.585 163.137C182.826 168.76 178.35 173.819 173.362 178.37C169.158 182.206 164.735 185.789 159.926 188.897C153.303 193.177 146.336 196.681 138.935 199.419C132.245 201.893 125.352 203.42 118.345 204.514C116.029 204.876 113.665 204.989 111.318 205.074C107.789 205.202 104.249 205.355 100.725 205.222C97.1296 205.085 93.507 204.847 89.969 204.234C85.392 203.442 80.8431 202.394 76.3607 201.169C69.2321 199.22 62.5407 196.187 56.0597 192.625C50.5411 189.591 45.3456 186.08 40.6248 181.977C36.4925 178.385 32.7291 174.352 28.9599 170.365C24.6932 165.852 21.3352 160.643 18.1041 155.362C17.6075 154.55 17.2431 153.658 16.8106 152.596C16.8498 151.235 16.6324 150.244 15.2844 149.958C15.1757 149.757 15.0671 149.555 15.0142 149.282C15.643 149.199 16.216 149.188 16.7891 149.177Z" fill="white"/>
<path d="M178.839 37.4436C179.414 37.9854 180.025 38.4938 180.555 39.0768C181.329 39.9283 182.043 40.8333 182.785 41.9099C183.67 43.2777 184.553 44.4511 185.452 45.7158C186.06 46.6249 186.652 47.4427 187.253 48.3556C187.844 49.4085 188.427 50.3645 189.004 51.3246C190.335 53.5401 191.695 55.7391 192.976 57.9832C193.531 58.9553 193.921 60.0219 194.509 61.3176C193.849 61.0867 193.536 60.9775 193.237 60.7736C193.231 60.5499 193.26 60.3793 193.188 60.2977C190.744 57.5258 188.298 54.7546 185.82 52.0124C185.62 51.7904 185.189 51.7763 184.867 51.5665C184.779 51.1831 184.779 50.7965 184.588 50.6303C182.397 48.7267 180.192 46.8387 177.945 45.0017C177.679 44.7841 177.145 44.8945 176.735 44.8529C176.655 44.799 176.575 44.7452 176.46 44.5331C175.695 43.8082 175.004 43.1724 174.217 42.6977C173.63 42.3437 172.917 42.1979 172.261 41.9595C172.261 41.9595 172.278 41.957 172.28 41.8651C172.275 41.5734 172.269 41.3736 172.232 41.1219C172.148 41.0056 172.083 40.9571 171.908 40.9196C171.547 40.8832 171.285 40.8519 171.001 40.734C170.538 40.3821 170.096 40.1166 169.656 39.8498C169.656 39.8485 169.653 39.8509 169.627 39.7649C169.069 39.3285 168.557 38.9438 168.002 38.6364C167.322 38.2602 166.358 38.1266 165.96 37.5709C165.227 36.5469 164.35 36.5898 163.259 36.6805C160.863 35.6958 158.586 34.6557 156.244 33.7897C155.543 33.5305 154.662 33.7577 153.864 33.7621C153.71 33.7403 153.557 33.7184 153.349 33.5339C152.627 32.4043 151.731 32.3364 150.623 32.7135C150.33 32.7291 150.136 32.7498 149.941 32.7705C149.941 32.7705 149.957 32.7615 149.956 32.7C149.944 32.5932 149.932 32.5479 149.919 32.4409C148.614 32.1604 147.309 31.9415 145.932 31.669C145.297 31.561 144.736 31.5067 144.095 31.4424C143.911 31.4264 143.805 31.4203 143.617 31.3637C142.964 31.1866 142.392 31.06 141.774 30.8914C141.581 30.8734 141.434 30.8972 141.169 30.917C140.273 30.8947 139.494 30.8766 138.623 30.8107C137.185 30.6436 135.84 30.4236 134.496 30.4267C132.009 30.4325 129.506 30.4098 127.042 30.6878C123.238 31.1169 119.457 31.7626 115.678 32.3853C115.085 32.4829 114.553 32.9444 113.993 33.2377C113.543 33.4275 113.093 33.6173 112.466 33.744C111.949 33.667 111.573 33.5484 111.279 33.6554C108.566 34.642 105.857 35.6428 103.176 36.7136C102.843 36.847 102.681 37.4122 102.44 37.7773C102.44 37.7773 102.432 37.7585 102.33 37.7443C101.605 37.8648 100.925 37.8865 100.366 38.1564C99.0148 38.8082 97.7418 39.621 96.3945 40.2816C95.4365 40.7514 94.2761 40.9165 94.0348 42.2316C93.1313 42.7518 92.2278 43.272 91.1391 43.8253C89.7019 44.7156 88.2817 45.4098 87.2471 46.4776C86.2944 47.4608 84.593 47.8106 84.4429 49.5261C84.4429 49.5261 84.4261 49.5563 84.3255 49.5318C84.1678 49.4988 84.1107 49.4902 84.0182 49.4125C83.5069 49.5532 82.9344 49.6586 82.573 49.9925C81.4883 50.9946 80.6236 52.3023 79.4088 53.0753C78.3959 53.7197 78.2515 54.1903 78.8022 55.0966C78.8022 55.0966 78.7993 55.1115 78.7053 55.1331C77.6444 56.0975 76.5676 56.9548 75.7478 58.0115C75.1558 58.7745 74.0561 59.3587 74.3315 60.6228C74.3315 60.6228 74.3293 60.604 74.2441 60.6116C73.2468 61.8319 72.3347 63.0447 71.341 64.2889C70.5745 64.963 69.5858 65.4272 69.878 66.7393C69.866 66.9461 69.8669 67.0648 69.8678 67.1835C69.8678 67.1835 69.8716 67.166 69.7808 67.1682C69.5091 67.2755 69.2171 67.3419 69.1651 67.4917C68.7688 68.634 67.8857 68.7533 66.8496 68.7525C49.0935 68.7398 31.3373 68.7449 13.5812 68.7391C13.127 68.739 12.6729 68.6598 12.3989 68.6343C12.2874 67.9186 12.2074 67.405 12.1274 66.8914C12.2017 66.6789 12.276 66.4663 12.4628 66.1651C13.0986 65.3818 13.7442 64.7475 14.1219 63.9812C15.1864 61.8219 16.0322 59.5501 17.1697 57.433C18.255 55.413 19.5501 53.4986 20.8412 51.5977C22.6038 49.0026 24.4745 46.481 26.2412 43.8885C26.6301 43.3179 26.777 42.5822 27.0353 41.9226C27.0353 41.9226 27.0388 41.9406 27.1244 41.931C27.4302 41.7992 27.7005 41.7229 27.8622 41.5469C28.68 40.6572 29.4366 39.7097 30.2755 38.8412C32.3715 36.6711 34.5096 34.5415 36.61 32.3755C37.1421 31.8267 37.5965 31.2024 38.1738 30.5983C38.38 30.531 38.5184 30.5019 38.6148 30.4221C40.6795 28.7123 42.7316 26.9873 44.8048 25.2879C45.501 24.7171 46.224 24.1714 46.9775 23.6798C48.632 22.6004 50.3146 21.5639 51.9843 20.5078C53.916 19.2859 55.7813 17.9394 57.7941 16.8702C60.1836 15.6008 62.7065 14.584 65.1536 13.4198C65.5522 13.2301 65.8577 12.8445 66.3087 12.5418C69.8723 11.4279 73.3356 10.3287 76.7879 9.19573C76.9742 9.1346 77.0674 8.78994 77.2039 8.57727C77.2039 8.57727 77.2088 8.59324 77.2658 8.57493C77.4404 8.49944 77.558 8.44224 77.6756 8.38505C77.9837 8.30186 78.2917 8.21867 78.7805 8.17791C80.0311 8.08055 81.1155 8.00979 82.1676 7.78668C84.3872 7.31596 86.5669 6.6108 88.8041 6.2786C94.1626 5.48292 99.5476 4.91172 104.986 5.12963C105.544 5.15197 106.114 4.87191 106.748 4.72743C106.912 4.72639 107.006 4.7301 107.185 4.78975C107.909 4.95009 108.545 5.09632 109.189 5.15168C112.056 5.39817 114.954 5.43896 117.787 5.89278C121.56 6.49737 125.281 7.43189 129.033 8.17967C129.505 8.27389 130.032 8.09533 130.534 8.04316C130.991 8.14222 131.449 8.24129 132.03 8.44639C132.602 8.86999 133.006 9.30536 133.503 9.48565C136.362 10.5228 139.279 11.4091 142.107 12.5227C144.79 13.5797 147.38 14.8729 150.03 16.0183C150.773 16.3393 151.582 16.5054 152.361 16.7425C152.361 16.7425 152.471 16.7474 152.567 16.8095C152.727 16.9255 152.798 16.9681 152.876 16.9993C152.876 16.9993 152.851 16.997 152.873 17.0729C153.304 17.5246 153.667 17.9723 154.129 18.2627C155.444 19.0896 156.786 19.8764 158.149 20.6204C158.423 20.7698 158.838 20.6612 159.187 20.6715C160.735 21.7508 162.283 22.8302 163.889 24.074C164.183 24.3493 164.418 24.4601 164.652 24.5709C164.652 24.5709 164.709 24.5765 164.731 24.6849C165.338 25.4264 165.825 26.2074 166.524 26.6674C169.822 28.8395 172.532 31.6704 175.373 34.3592C176.322 35.2572 177.34 36.0819 178.327 36.9401C178.375 36.9497 178.422 36.9593 178.531 37.0515C178.608 37.2796 178.626 37.4251 178.643 37.5707C178.708 37.5283 178.773 37.4859 178.839 37.4436Z" fill="white"/>
<path d="M60.4093 89.77C59.8686 89.9372 59.3283 90.2492 58.7873 90.2505C46.9737 90.2784 35.1601 90.2719 23.3465 90.272C20.6969 90.272 20.6634 90.2666 20.2556 92.7566C20.0065 94.2774 19.8877 95.8192 19.6954 97.3497C19.5516 98.4937 19.9 98.9718 21.1876 98.9667C33.001 98.9199 44.8147 98.9389 56.6283 98.9412C58.473 98.9415 58.5636 99.0354 58.5652 100.874C58.5675 103.412 58.5703 105.95 58.5643 108.487C58.5606 110.054 58.3872 110.229 56.8285 110.229C45.2336 110.232 33.6386 110.269 22.0441 110.202C19.5147 110.188 19.5403 110.724 19.7746 113.2C19.9391 114.938 20.2413 116.663 20.5261 118.559C20.6356 118.784 20.7011 118.843 20.7665 118.903C20.7665 118.903 20.742 118.905 20.8238 118.965C21.4229 119.07 21.9403 119.155 22.4577 119.155C35.1999 119.161 47.9422 119.159 60.6844 119.158C60.8484 119.274 61.0125 119.391 61.1852 119.717C61.1943 123.707 61.1948 127.488 61.1952 131.269C61.0907 132.31 60.2822 132.019 59.6887 132.02C50.8493 132.034 42.0098 132.03 33.1704 132.03C25.4249 132.03 17.6794 132.011 9.9341 132.05C8.85446 132.056 8.19211 131.766 7.95495 130.672C7.32421 127.765 6.5543 124.881 6.06607 121.951C5.49507 118.523 4.99734 115.066 4.77523 111.602C4.55727 108.203 4.56092 104.769 4.76482 101.369C5.02518 97.0264 5.44125 92.6815 6.06018 88.3765C6.53589 85.0678 7.42555 81.8183 8.14506 78.5456C8.18736 78.3532 8.3542 78.1882 8.60173 77.9345C8.81227 77.8181 8.87202 77.7643 8.91962 77.6969C9.1371 77.6812 9.35457 77.6517 9.57203 77.6517C26.2637 77.6532 42.9553 77.6571 59.8091 77.7247C60.034 77.8363 60.0983 77.8816 60.1642 77.9246C60.2533 77.9336 60.3221 77.9758 60.387 78.2349C60.4054 82.2024 60.4073 85.9862 60.4093 89.77Z" fill="white"/>
<path d="M73.5248 77.771C80.4183 77.7537 87.3118 77.7335 94.2054 77.7204C97.0417 77.7151 99.8782 77.7251 102.924 77.8044C103.875 77.9163 104.616 77.9519 105.357 77.9875C109.543 77.9457 113.636 78.466 117.632 79.7884C121.752 81.1517 125.353 83.3101 128.212 86.5725C131.32 90.1196 133.313 94.2756 133.904 98.9514C134.32 102.249 134.529 105.611 134.408 108.928C134.304 111.798 133.563 114.607 132.438 117.329C131.129 120.496 129.281 123.202 126.773 125.491C124.176 127.862 121.157 129.527 117.807 130.521C113.086 131.921 108.216 132.118 103.326 132.107C93.7414 132.084 84.1571 132.105 74.5729 132.087C74.0827 132.087 73.5929 131.889 73.0548 131.565C73.0062 113.644 73.0055 95.9417 73.0049 78.2392C73.0114 78.1498 73.0522 78.0808 73.2368 77.9807C73.4164 77.8886 73.476 77.8359 73.5248 77.771ZM101.069 118.973C103.917 118.616 106.819 118.491 109.602 117.851C115.231 116.558 119.414 113.7 120.338 107.363C121.318 100.644 118.484 94.9753 111.712 92.4452C107.409 90.8376 102.908 90.5979 98.4148 90.3743C95.1896 90.2139 91.95 90.3317 88.717 90.3548C88.2137 90.3584 87.7116 90.5195 87.1074 90.7069C87.0517 90.7836 86.9961 90.8603 86.9487 91.0433C86.9487 91.0433 86.9092 91.1423 86.777 91.3132C86.7412 91.5702 86.6745 91.8272 86.6743 92.0843C86.6679 100.496 86.6648 108.907 86.6774 117.319C86.678 117.691 86.8301 118.063 86.9823 118.577C87.1425 118.713 87.3028 118.849 87.633 119.12C91.8683 119.143 96.1037 119.169 100.339 119.183C100.501 119.184 100.664 119.072 101.069 118.973Z" fill="white"/>
<path d="M204.868 111.351C205.845 112.534 205.165 113.897 205.022 115.058C204.539 118.986 203.165 122.58 200.155 125.395C196.535 128.781 192.295 130.833 187.464 131.876C182.309 132.989 177.109 133.264 171.871 133.143C167.526 133.042 163.272 132.425 159.141 130.959C155.324 129.605 151.874 127.651 149.073 124.764C147.058 122.689 145.508 120.249 144.388 117.496C142.549 112.978 141.958 108.301 142.101 103.507C142.263 98.0659 143.593 92.9092 146.818 88.4477C148.865 85.6153 151.502 83.3683 154.556 81.5611C158.183 79.4152 162.124 78.1612 166.19 77.5424C170.674 76.8599 175.225 76.7624 179.8 77.1263C182.933 77.3755 186.017 77.6948 189.042 78.5159C192.535 79.4643 195.702 81.045 198.539 83.331C202.487 86.5117 204.175 90.8089 204.84 95.6378C205.064 97.2682 204.651 97.6935 203.035 97.6948C199.097 97.6979 195.158 97.6818 191.22 97.708C190.494 97.7129 189.898 97.6021 189.686 96.8341C188.924 94.0675 186.788 92.5949 184.348 91.7539C182.157 90.9988 179.792 90.6115 177.473 90.4015C174.986 90.1762 172.431 90.0909 169.961 90.3954C163.684 91.1693 159.78 93.8641 158.131 100.45C157.212 104.119 157.177 107.814 158.403 111.401C160.249 116.802 163.608 118.852 169.339 119.457C171.968 119.735 174.633 119.73 177.282 119.742C180.301 119.756 183.281 119.264 186.044 118.071C188.265 117.111 189.699 115.31 190.134 112.822C190.219 112.34 190.527 111.897 190.943 111.396C195.726 111.354 200.297 111.352 204.868 111.351Z" fill="white"/>
<path d="M12.0844 67.0546C12.2074 67.4761 12.2874 67.9897 12.3988 68.7053C12.6729 68.7309 13.127 68.81 13.5811 68.8102C31.3373 68.8159 49.0934 68.8108 66.8496 68.8236C67.8856 68.8243 68.7688 68.7051 69.1651 67.5627C69.2171 67.413 69.5091 67.3465 69.7867 67.246C69.2521 69.1819 69.0456 69.3333 67.0722 69.3333C49.1486 69.3327 31.225 69.3326 13.3015 69.3327C11.3214 69.3327 11.0719 68.9007 12.0844 67.0546Z" fill="white"/>
<path d="M66.2061 12.6205C65.8576 12.9155 65.5521 13.3011 65.1535 13.4908C62.7064 14.655 60.1835 15.6718 57.794 16.9412C55.7812 18.0104 53.9159 19.3569 51.9842 20.5788C50.3145 21.635 48.6319 22.6714 46.9774 23.7508C46.2239 24.2424 45.5009 24.7881 44.8047 25.3589C42.7315 27.0583 40.6794 28.7833 38.6147 30.4931C38.5183 30.5729 38.3799 30.602 38.1717 30.6107C38.0823 30.5667 38.0747 30.4489 38.0747 30.4489C39.0469 29.5344 39.9614 28.5474 41.0027 27.72C43.5387 25.7049 46.084 23.6944 48.7203 21.8151C50.7788 20.3477 52.9114 18.9534 55.1336 17.7535C58.5069 15.932 61.9863 14.3071 65.6162 12.6011C65.9432 12.6091 66.0747 12.6148 66.2061 12.6205Z" fill="white"/>
<path d="M26.9387 42.0042C26.7769 42.6533 26.6301 43.3889 26.2412 43.9596C24.4745 46.552 22.6038 49.0736 20.8412 51.6687C19.5501 53.5696 18.255 55.484 17.1696 57.5041C16.0321 59.6211 15.1863 61.8929 14.1219 64.0522C13.7441 64.8185 13.0986 65.4528 12.4834 66.1505C13.64 63.4453 14.7158 60.6394 16.1787 58.0524C18.2139 54.4533 20.4875 50.9842 22.7603 47.5261C24.014 45.6187 25.4747 43.8475 26.9387 42.0042Z" fill="white" fill-opacity="0.266667"/>
<path d="M193.224 60.9392C193.536 61.0485 193.849 61.1577 194.509 61.3886C193.921 60.093 193.531 59.0263 192.976 58.0542C191.695 55.8102 190.335 53.6112 189.004 51.3956C188.427 50.4355 187.843 49.4796 187.258 48.4221C187.253 48.3224 187.262 48.3134 187.358 48.316C187.58 48.3123 187.707 48.306 187.834 48.2997C188.062 48.6774 188.29 49.0551 188.589 49.5697C188.724 49.7699 188.787 49.8331 188.85 49.8964C188.85 49.8964 188.844 49.8753 188.855 49.9476C188.929 50.1542 188.992 50.2886 189.055 50.423C191.844 54.2122 193.972 58.3744 195.923 62.6344C196.396 63.6681 196.838 64.7176 197.253 65.7761C197.416 66.1904 197.465 66.6493 197.565 67.0879C197.445 67.1509 197.324 67.214 197.204 67.2771C195.815 65.2275 194.426 63.178 193.079 61.0332C193.121 60.938 193.224 60.9392 193.224 60.9392Z" fill="white"/>
<path d="M106.679 4.8032C106.114 4.94294 105.544 5.22301 104.987 5.20066C99.5478 4.98276 94.1628 5.55395 88.8043 6.34964C86.5672 6.68184 84.3875 7.387 82.1678 7.85771C81.1157 8.08083 80.0313 8.15159 78.8794 8.24055C80.7309 7.64514 82.6381 6.96139 84.6043 6.5871C87.9317 5.95366 91.2871 5.44149 94.6489 5.02409C96.6129 4.78024 98.6119 4.81919 100.837 4.72937C102.945 4.75295 104.812 4.77808 106.679 4.8032Z" fill="white"/>
<path d="M197.951 140.673C179.281 140.771 160.557 140.769 141.713 140.769C141.945 140.68 142.297 140.512 142.65 140.512C160.806 140.501 178.961 140.503 197.117 140.507C197.377 140.507 197.637 140.55 197.951 140.673Z" fill="white"/>
<path d="M114.104 33.3266C114.553 33.0155 115.085 32.554 115.678 32.4564C119.457 31.8336 123.238 31.1879 127.042 30.7588C129.505 30.4808 132.009 30.5035 134.496 30.4978C135.84 30.4947 137.185 30.7146 138.567 30.9244C138.538 31.079 138.472 31.143 138.406 31.2071C136.989 31.1339 135.573 30.9966 134.156 30.999C129.05 31.0075 123.98 31.3735 118.988 32.5581C117.423 32.9293 115.808 33.0883 114.104 33.3266Z" fill="white" fill-opacity="0.733333"/>
<path d="M72.9094 78.3031C73.0056 95.9417 73.0062 113.644 73.0064 131.471C72.9191 131.238 72.7568 130.881 72.7565 130.524C72.7447 113.355 72.7467 96.185 72.7504 79.0155C72.7504 78.7993 72.7918 78.5831 72.9094 78.3031Z" fill="white"/>
<path d="M152.346 16.7135C151.583 16.5764 150.773 16.4103 150.031 16.0893C147.38 14.9439 144.791 13.6507 142.107 12.5937C139.279 11.4802 136.363 10.5938 133.504 9.55665C133.007 9.37637 132.602 8.94099 132.132 8.53741C133.341 8.83758 134.591 9.17719 135.804 9.61962C138.346 10.5475 140.892 11.4733 143.393 12.5039C146.263 13.6863 149.087 14.9784 151.926 16.2348C152.086 16.3053 152.197 16.4847 152.346 16.7135Z" fill="white"/>
<path d="M178.319 36.9179C177.34 36.1529 176.322 35.3283 175.373 34.4302C172.532 31.7415 169.822 28.9106 166.524 26.7384C165.825 26.2785 165.338 25.4975 164.734 24.7841C166.996 26.4175 169.35 28.0439 171.536 29.8709C173.471 31.4878 175.239 33.3077 177.036 35.0829C177.542 35.5822 177.891 36.2398 178.319 36.9179Z" fill="white" fill-opacity="0.666667"/>
<path d="M130.481 8.0238C130.033 8.16634 129.505 8.34489 129.033 8.25067C125.281 7.5029 121.561 6.56837 117.787 5.96378C114.955 5.50996 112.056 5.46917 109.189 5.22269C108.545 5.16732 107.909 5.0211 107.306 4.83862C107.984 4.74395 108.627 4.72735 109.269 4.71075C113.782 5.14928 118.31 5.47636 122.802 6.07464C124.959 6.36196 127.046 7.16818 129.169 7.72373C129.579 7.831 130.008 7.86541 130.481 8.0238Z" fill="white"/>
<path d="M60.6239 119.131C47.9419 119.23 35.1996 119.233 22.4574 119.226C21.94 119.226 21.4226 119.141 20.8223 119.024C33.4921 118.958 46.2449 118.963 58.9977 118.972C59.5197 118.973 60.0418 119.012 60.6239 119.131Z" fill="white"/>
<path d="M37.9797 30.4579C38.075 30.4489 38.0826 30.5667 38.0847 30.6253C37.5967 31.2735 37.1424 31.8977 36.6102 32.4465C34.5098 34.6125 32.3718 36.7421 30.2757 38.9122C29.4368 39.7807 28.6802 40.7282 27.8624 41.618C27.7007 41.794 27.4304 41.8702 27.1157 41.9996C28.109 40.6431 29.118 39.2063 30.3024 37.9324C32.1805 35.9125 34.1687 33.9945 36.1258 32.049C36.6844 31.4938 37.2967 30.9928 37.9797 30.4579Z" fill="white" fill-opacity="0.266667"/>
<path d="M17.5957 150.339C16.9237 150.463 16.2459 150.476 15.4518 150.485C14.2506 148.064 13.1656 145.646 12.0806 143.229C12.3013 143.109 12.522 142.989 12.7427 142.869C14.3584 145.322 15.9742 147.775 17.5957 150.339Z" fill="white"/>
<path d="M193.237 60.8446C193.224 60.9392 193.122 60.9379 193.07 60.9384C191.135 58.8348 189.266 56.7177 187.361 54.6328C186.503 53.6934 185.574 52.8184 184.725 51.8242C184.772 51.7342 184.865 51.7366 184.865 51.7366C185.189 51.8473 185.62 51.8614 185.82 52.0834C188.298 54.8256 190.744 57.5968 193.188 60.3687C193.26 60.4503 193.231 60.6209 193.237 60.8446Z" fill="white" fill-opacity="0.266667"/>
<path d="M102.539 37.8375C102.681 37.4832 102.843 36.918 103.177 36.7846C105.857 35.7138 108.566 34.7131 111.279 33.7264C111.573 33.6194 111.95 33.738 112.369 33.8124C110.995 34.467 109.543 35.0671 108.085 35.6537C106.272 36.3838 104.453 37.1028 102.539 37.8375Z" fill="white" fill-opacity="0.266667"/>
<path d="M153.961 33.8705C154.662 33.8288 155.543 33.6015 156.244 33.8607C158.586 34.7267 160.863 35.7668 163.315 36.8168C163.6 37.1373 163.736 37.3811 163.872 37.6249C161.274 36.6176 158.678 35.6052 156.077 34.6065C155.413 34.3514 154.732 34.1396 153.961 33.8705Z" fill="white"/>
<path d="M78.8845 55.1337C78.2515 54.2614 78.3959 53.7908 79.4088 53.1463C80.6237 52.3733 81.4883 51.0656 82.5731 50.0636C82.9345 49.7297 83.5069 49.6243 84.0145 49.5814C84.0464 49.8131 84.0466 49.8778 84.0469 49.9425C82.3535 51.6616 80.6602 53.3807 78.8845 55.1337Z" fill="white"/>
<path d="M184.867 51.6375C184.865 51.7367 184.772 51.7342 184.725 51.7334C183.085 50.3381 181.506 48.9265 179.893 47.5551C178.89 46.7022 177.835 45.9098 176.769 45.0071C177.145 44.9655 177.679 44.8551 177.945 45.0727C180.192 46.9097 182.397 48.7978 184.588 50.7013C184.779 50.8676 184.779 51.2542 184.867 51.6375Z" fill="white" fill-opacity="0.666667"/>
<path d="M66.3087 12.6129C66.0747 12.6148 65.9432 12.6092 65.7134 12.5979C67.2405 11.9874 68.8538 11.3468 70.4945 10.7863C72.6502 10.0498 74.8275 9.37651 77.0997 8.66217C77.0673 8.86097 76.9741 9.20562 76.7878 9.26675C73.3356 10.3997 69.8722 11.4989 66.3087 12.6129Z" fill="white"/>
<path d="M94.1299 42.2906C94.276 40.9875 95.4364 40.8224 96.3944 40.3527C97.7417 39.6921 99.0147 38.8792 100.366 38.2274C100.925 37.9575 101.605 37.9358 102.34 37.8193C99.7087 39.3178 96.9669 40.7981 94.1299 42.2906Z" fill="white" fill-opacity="0.266667"/>
<path d="M84.542 49.6152C84.5932 47.8816 86.2947 47.5318 87.2473 46.5486C88.2819 45.4808 89.7021 44.7866 91.0411 43.9144C90.7847 44.37 90.5193 44.9345 90.0846 45.2947C88.2981 46.7747 86.46 48.1925 84.542 49.6152Z" fill="white"/>
<path d="M163.919 37.7077C163.736 37.3811 163.6 37.1373 163.408 36.8282C164.35 36.6608 165.227 36.6179 165.96 37.6419C166.359 38.1976 167.322 38.3312 168.002 38.7074C168.557 39.0148 169.07 39.3996 169.533 39.8191C168.913 39.7321 168.362 39.5762 167.811 39.4202C166.529 38.877 165.247 38.3338 163.919 37.7077Z" fill="white"/>
<path d="M74.419 60.6634C74.0562 59.4297 75.156 58.8455 75.7479 58.0825C76.5678 57.0258 77.6446 56.1685 78.6979 55.2032C78.1924 55.9884 77.623 56.8139 77.0029 57.5994C76.1916 58.6271 75.3403 59.6232 74.419 60.6634Z" fill="white"/>
<path d="M159.141 20.6557C158.837 20.7322 158.423 20.8409 158.149 20.6914C156.786 19.9474 155.443 19.1607 154.128 18.3338C153.667 18.0434 153.304 17.5957 152.875 17.1315C154.934 18.2184 157.014 19.3936 159.141 20.6557Z" fill="white"/>
<path d="M204.812 111.25C200.297 111.352 195.726 111.354 191.03 111.353C191.081 111.264 191.258 111.104 191.434 111.104C195.874 111.109 200.315 111.13 204.812 111.25Z" fill="white"/>
<path d="M185.436 45.6955C184.553 44.5221 183.669 43.3487 182.778 42.0715C183.211 42.3827 183.703 42.7562 184.081 43.2222C184.742 44.0358 185.333 44.9063 185.895 45.8216C185.703 45.8253 185.57 45.7604 185.436 45.6955Z" fill="white"/>
<path d="M61.2959 131.282C61.1948 127.559 61.1943 123.778 61.1934 119.874C61.279 119.925 61.4404 120.1 61.4402 120.274C61.4366 123.924 61.4147 127.574 61.2959 131.282Z" fill="white"/>
<path d="M60.5065 89.7792C60.4075 86.0573 60.4055 82.2735 60.4064 78.3652C60.4958 78.4197 60.6581 78.5987 60.6578 78.7775C60.6509 82.4241 60.6254 86.0707 60.5065 89.7792Z" fill="white"/>
<path d="M172.294 42.1183C172.917 42.269 173.63 42.4147 174.217 42.7687C175.004 43.2435 175.695 43.8793 176.437 44.5329C175.074 43.8152 173.701 43.0107 172.294 42.1183Z" fill="white"/>
<path d="M71.4229 64.3285C72.335 63.1157 73.2471 61.903 74.2538 60.6817C73.4353 62.0645 72.5221 63.4557 71.5158 64.7897C71.4228 64.5978 71.4228 64.4631 71.4229 64.3285Z" fill="white"/>
<path d="M109.215 4.60889C108.627 4.72738 107.984 4.74397 107.221 4.7827C107.006 4.80113 106.912 4.79742 106.749 4.79846C104.812 4.77807 102.945 4.75294 100.955 4.71944C101.049 4.62761 101.267 4.47186 101.485 4.47171C104.044 4.46996 106.603 4.49156 109.215 4.60889Z" fill="white"/>
<path d="M185.453 45.7869C185.57 45.7604 185.703 45.8253 185.907 45.915C186.407 46.4825 186.837 47.0253 187.264 47.7538C187.261 48.0641 187.262 48.1887 187.263 48.3134C187.263 48.3134 187.253 48.3224 187.249 48.327C186.652 47.5137 186.061 46.696 185.453 45.7869Z" fill="white"/>
<path d="M146.005 31.7937C147.309 32.0126 148.614 32.2314 149.824 32.5124C149.537 32.5741 149.344 32.5737 149.152 32.5733C148.529 32.4794 147.906 32.3855 147.096 32.2264C146.603 32.1276 146.295 32.0941 145.988 32.0606C145.988 32.0606 146.007 32.0592 145.996 32.0066C145.984 31.954 145.967 31.8314 145.976 31.8219C145.986 31.8125 146.005 31.7937 146.005 31.7937Z" fill="white"/>
<path d="M15.3091 150.045C16.6326 150.243 16.85 151.235 16.8009 152.502C16.3099 151.786 15.8217 150.959 15.3091 150.045Z" fill="white"/>
<path d="M138.523 31.2273C138.472 31.143 138.538 31.0789 138.66 30.9722C139.494 30.9476 140.273 30.9657 141.216 31.0282C141.527 31.0499 141.673 31.0271 141.82 31.0044C142.392 31.131 142.964 31.2576 143.51 31.4444C143.271 31.5108 143.057 31.5171 142.843 31.5234C141.443 31.4315 140.042 31.3395 138.523 31.2273Z" fill="white"/>
<path d="M71.3409 64.3599C71.4224 64.4631 71.4224 64.5978 71.4309 64.8332C71.3578 65.0387 71.2762 65.1435 71.116 65.3545C70.9955 65.5382 70.9538 65.6156 70.9121 65.693C70.9121 65.693 70.9018 65.6639 70.8617 65.7034C70.7634 65.8168 70.7052 65.8907 70.6469 65.9647C70.6469 65.9647 70.6475 66.0571 70.5772 66.1497C70.4663 66.3299 70.4257 66.4176 70.3852 66.5053C70.3852 66.5053 70.3888 66.5865 70.2938 66.6323C70.0961 66.6927 69.9934 66.7074 69.8907 66.7221C69.5857 65.4982 70.5744 65.034 71.3409 64.3599Z" fill="white"/>
<path d="M150.721 32.7896C151.731 32.4074 152.627 32.4754 153.319 33.5282C153.228 33.6108 153.112 33.6074 152.84 33.5397C152.461 33.4383 152.238 33.4011 152.015 33.364C152.015 33.364 151.905 33.3555 151.793 33.2882C151.533 33.18 151.386 33.1391 151.239 33.0981C151.131 33.093 151.022 33.0878 150.827 33.0001C150.74 32.9176 150.721 32.7896 150.721 32.7896Z" fill="white"/>
<path d="M167.845 39.5056C168.362 39.5762 168.913 39.7321 169.559 39.905C169.654 39.9219 169.657 39.9195 169.69 39.9957C169.806 40.2748 169.889 40.4779 169.972 40.6809C169.274 40.3176 168.576 39.9543 167.845 39.5056Z" fill="white"/>
<path d="M171.024 40.8916C171.286 40.9229 171.548 40.9542 171.946 41.037C172.137 41.1476 172.197 41.1997 172.264 41.2448C172.27 41.4446 172.275 41.6445 172.276 41.9441C171.757 41.742 171.244 41.4402 170.784 41.0364C170.899 40.9202 170.961 40.9059 171.024 40.8916Z" fill="white"/>
<path d="M171.002 40.8051C170.962 40.9059 170.899 40.9202 170.743 40.9526C170.649 40.9707 170.562 40.973 170.471 40.9055C170.294 40.7961 170.208 40.7541 170.122 40.7121C170.122 40.7121 170.043 40.7148 170.007 40.6979C169.889 40.4779 169.806 40.2748 169.689 39.997C170.096 40.1877 170.538 40.4531 171.002 40.8051Z" fill="white"/>
<path d="M144.174 31.5234C144.736 31.5777 145.298 31.632 145.932 31.74C146.005 31.7937 145.986 31.8125 145.868 31.8098C145.303 31.8007 144.857 31.7944 144.411 31.7881C144.411 31.7881 144.29 31.7712 144.233 31.6987C144.175 31.6263 144.174 31.5234 144.174 31.5234Z" fill="white"/>
<path d="M105.303 77.8881C104.616 77.9519 103.875 77.9163 103.047 77.821C103.723 77.7705 104.485 77.7796 105.303 77.8881Z" fill="white"/>
<path d="M144.457 31.8853C144.857 31.7944 145.304 31.8007 145.858 31.8192C145.967 31.8314 145.985 31.954 145.992 32.0155C145.501 32.0455 145.002 32.014 144.457 31.8853Z" fill="white"/>
<path d="M164.623 24.5673C164.418 24.5311 164.183 24.4203 163.924 24.2289C164.131 24.2632 164.362 24.3779 164.623 24.5673Z" fill="white" fill-opacity="0.666667"/>
<path d="M144.095 31.5135C144.174 31.5235 144.175 31.6263 144.175 31.6777C143.761 31.7241 143.346 31.7191 142.887 31.6188C143.057 31.5171 143.271 31.5108 143.592 31.4949C143.805 31.4913 143.911 31.4974 144.095 31.5135Z" fill="white"/>
<path d="M178.838 37.4414C178.773 37.557 178.708 37.5993 178.643 37.6417C178.626 37.4961 178.608 37.3506 178.6 37.1448C178.685 37.1791 178.761 37.2736 178.838 37.4414Z" fill="white" fill-opacity="0.666667"/>
<path d="M146.03 32.1524C146.295 32.0941 146.603 32.1276 146.989 32.211C146.736 32.2554 146.404 32.2499 146.03 32.1524Z" fill="white"/>
<path d="M187.358 48.316C187.261 48.1887 187.26 48.064 187.264 47.8458C187.436 47.8854 187.602 48.0186 187.801 48.2258C187.707 48.306 187.58 48.3123 187.358 48.316Z" fill="white"/>
<path d="M152.054 33.4507C152.238 33.4011 152.461 33.4382 152.754 33.5234C152.581 33.5601 152.337 33.5487 152.054 33.4507Z" fill="white"/>
<path d="M149.186 32.6605C149.344 32.5737 149.537 32.574 149.825 32.574C149.932 32.6189 149.944 32.6642 149.953 32.7796C149.706 32.8157 149.463 32.7817 149.186 32.6605Z" fill="white"/>
<path d="M150.623 32.7845C150.721 32.7895 150.739 32.9176 150.747 32.9818C150.505 33.0381 150.255 33.0303 149.973 32.932C150.135 32.8208 150.33 32.8001 150.623 32.7845Z" fill="white"/>
<path d="M69.8781 66.8103C69.9937 66.7074 70.0964 66.6927 70.2766 66.6689C70.2463 66.8415 70.1384 67.0231 69.9493 67.2296C69.867 67.1359 69.8661 67.0172 69.8781 66.8103Z" fill="white"/>
<path d="M189.077 50.3404C188.992 50.2886 188.929 50.1543 188.866 49.9442C188.943 49.9983 189.022 50.1281 189.077 50.3404Z" fill="white"/>
<path d="M77.6021 8.44049C77.5581 8.51327 77.4405 8.57046 77.2578 8.6439C77.3047 8.58172 77.4166 8.50331 77.6021 8.44049Z" fill="white"/>
<path d="M151.269 33.1814C151.386 33.139 151.534 33.1799 151.741 33.2693C151.634 33.3001 151.466 33.2824 151.269 33.1814Z" fill="white"/>
<path d="M20.7464 118.905C20.7012 118.915 20.6357 118.855 20.5283 118.744C20.5663 118.74 20.6462 118.788 20.7464 118.905Z" fill="white"/>
<path d="M188.838 49.8243C188.787 49.8332 188.724 49.7699 188.625 49.6499C188.668 49.6462 188.747 49.6992 188.838 49.8243Z" fill="white"/>
<path d="M152.853 17.0002C152.798 17.0391 152.727 16.9966 152.619 16.8986C152.66 16.8797 152.745 16.905 152.853 17.0002Z" fill="white"/>
<path d="M170.158 40.7858C170.208 40.7541 170.294 40.7961 170.431 40.8881C170.386 40.912 170.29 40.8857 170.158 40.7858Z" fill="white"/>
<path d="M84.1227 49.9092C84.0467 49.8778 84.0464 49.813 84.0499 49.6505C84.1108 49.5612 84.1679 49.5698 84.3106 49.5943C84.3303 49.6989 84.2644 49.7874 84.1227 49.9092Z" fill="white"/>
<path d="M70.9866 65.6691C70.954 65.6156 70.9957 65.5382 71.0872 65.4169C71.1116 65.4637 71.0862 65.5544 70.9866 65.6691Z" fill="white"/>
<path d="M73.4576 77.774C73.476 77.836 73.4164 77.8887 73.296 77.9623C73.2941 77.9225 73.3423 77.8497 73.4576 77.774Z" fill="white"/>
<path d="M70.7187 65.9379C70.7053 65.8907 70.7636 65.8168 70.8764 65.6981C70.8841 65.7393 70.8372 65.8253 70.7187 65.9379Z" fill="white"/>
<path d="M70.4617 66.4716C70.4258 66.4176 70.4663 66.3299 70.5604 66.1927C70.5887 66.2414 70.5634 66.3397 70.4617 66.4716Z" fill="white"/>
<path d="M8.85148 77.7705C8.87201 77.8354 8.81226 77.8892 8.68908 77.9622C8.68631 77.9209 8.73483 77.8469 8.85148 77.7705Z" fill="white"/>
<path d="M60.1421 77.9332C60.0984 77.9527 60.0341 77.9074 59.9316 77.8164C59.9678 77.8056 60.0438 77.8382 60.1421 77.9332Z" fill="white"/>
<path d="M141.774 30.9625C141.673 31.0271 141.527 31.0499 141.334 31.0324C141.434 30.9683 141.581 30.9444 141.774 30.9625Z" fill="white" fill-opacity="0.733333"/>
<path d="M172.232 41.193C172.197 41.1997 172.137 41.1476 172.045 41.0421C172.084 41.0281 172.148 41.0766 172.232 41.193Z" fill="white"/>
<path d="M86.8433 91.2278C86.9167 100.158 86.924 109.174 86.9216 118.313C86.8303 118.063 86.6781 117.691 86.6776 117.319C86.665 108.907 86.6681 100.496 86.6745 92.0843C86.6747 91.8273 86.7414 91.5703 86.8433 91.2278Z" fill="white"/>
<path d="M87.5479 119.052C91.8367 118.985 96.2105 118.985 100.705 118.998C100.664 119.072 100.501 119.184 100.339 119.183C96.1035 119.169 91.8682 119.143 87.5479 119.052Z" fill="white"/>
<path d="M87.158 90.6573C87.1607 90.6907 87.1126 90.7736 87.0025 90.8968C86.996 90.8603 87.0516 90.7836 87.158 90.6573Z" fill="white"/>
</g>
<defs>
<clipPath id="clip0_70_229">
<rect width="208" height="208" fill="white"/>
</clipPath>
</defs>
</svg>
