<svg width="157" height="135" viewBox="0 0 157 135" fill="none" xmlns="http://www.w3.org/2000/svg">
<path d="M78.5 132C90.4211 132 110.289 124.062 110.289 88.3438C110.289 52.625 78.5 5 78.5 5C78.5 5 46.7105 52.625 46.7105 88.3438C46.7105 124.062 66.5789 132 78.5 132ZM78.5 132C66.5789 132 55.0297 130.248 38.7632 120.094C6.97368 100.25 3 36.75 3 36.75C3 36.75 38.7632 40.7188 54.6579 52.625M78.5 132C90.4211 132 101.97 130.248 118.237 120.094C150.026 100.25 154 36.75 154 36.75C154 36.75 118.237 40.7188 102.342 52.625" stroke="white" stroke-width="5"/>
</svg>
