<svg width="340" height="568" viewBox="0 0 340 568" fill="none" xmlns="http://www.w3.org/2000/svg">
<rect width="340" height="568" fill="#E0FE00"/>
<rect x="15.5" y="15.5" width="309" height="537" rx="13.5" stroke="#262626" stroke-width="3"/>
<path d="M93.7953 300.84C106.557 300.84 117.119 310.181 116.679 324.416C116.239 337.762 105.237 349.772 90.2747 349.772C71.352 349.772 60.7904 334.203 62.1106 312.851C63.8709 270.146 106.117 237.673 149.683 231L152.324 236.783C112.718 240.786 73.9924 271.925 71.792 308.402C71.352 311.961 71.792 315.075 72.2321 318.189C74.4324 308.847 82.7937 300.84 93.7953 300.84Z" fill="#262626"/>
<path d="M244.995 231C263.038 231 278 249.238 278 277.263C278 324.861 245.875 347.548 214.191 356V350.217C241.035 342.655 269.639 320.858 269.639 279.932C269.639 271.48 267.879 263.918 264.358 257.246C263.038 267.032 255.557 275.929 243.235 275.929C230.473 275.929 220.792 266.142 220.792 254.577C220.792 242.121 230.033 231 244.995 231Z" fill="#262626"/>
<path d="M97.05 96.85C94.95 96.85 93.8 97.75 93.8 100.3V101.4H99.35V106.85H93.8V129H86.8V106.85H83V101.4H86.8V99.95C86.8 93.5 90.7 91.7 95.7 91.7C97.3 91.7 98.55 91.95 99.55 92.15V97.3C98.8 97 97.9 96.85 97.05 96.85ZM115.616 129.6C106.866 129.6 101.466 123.7 101.466 115.1C101.466 106.7 106.866 100.8 115.616 100.8C124.316 100.8 129.716 106.7 129.716 115.1C129.716 123.7 124.316 129.6 115.616 129.6ZM115.616 124.15C119.916 124.15 122.566 120.45 122.566 115.1C122.566 109.85 119.916 106.3 115.616 106.3C111.266 106.3 108.616 109.85 108.616 115.1C108.616 120.45 111.266 124.15 115.616 124.15ZM146.866 129.6C138.116 129.6 132.716 123.7 132.716 115.1C132.716 106.7 138.116 100.8 146.866 100.8C155.566 100.8 160.966 106.7 160.966 115.1C160.966 123.7 155.566 129.6 146.866 129.6ZM146.866 124.15C151.166 124.15 153.816 120.45 153.816 115.1C153.816 109.85 151.166 106.3 146.866 106.3C142.516 106.3 139.866 109.85 139.866 115.1C139.866 120.45 142.516 124.15 146.866 124.15ZM177.226 96.85C175.126 96.85 173.976 97.75 173.976 100.3V101.4H179.526V106.85H173.976V129H166.976V106.85H163.176V101.4H166.976V99.95C166.976 93.5 170.876 91.7 175.876 91.7C177.476 91.7 178.726 91.95 179.726 92.15V97.3C178.976 97 178.076 96.85 177.226 96.85ZM208.842 115.55V116.7H188.792C189.192 121.2 191.442 124.35 195.642 124.35C198.642 124.35 200.942 122.8 201.392 120.3H208.442C207.492 126.95 201.192 129.6 195.592 129.6C187.192 129.6 181.642 124.1 181.642 115.2C181.642 106.75 186.942 100.8 195.542 100.8C204.392 100.8 208.842 107.05 208.842 115.55ZM195.592 106.1C192.142 106.1 189.792 108.25 188.992 112.2H201.642C201.142 108.2 199.042 106.1 195.592 106.1ZM218.571 119.7C218.721 123.3 220.771 124.8 224.321 124.8C227.371 124.8 229.321 123.8 229.321 121.6C229.321 118.85 226.171 118.3 222.421 117.6C217.221 116.65 212.221 115.05 212.221 109.2C212.221 103.6 216.971 100.8 223.721 100.8C231.371 100.8 235.221 104.15 235.371 109.9H228.621C228.471 106.7 226.771 105.6 223.621 105.6C220.621 105.6 218.871 106.5 218.871 108.6C218.871 111.05 221.471 111.55 225.471 112.25C230.271 113.1 235.921 114.65 235.921 120.95C235.921 126.95 230.771 129.6 224.171 129.6C216.721 129.6 211.821 126.4 211.721 119.7H218.571ZM255.566 106.85H249.516V119.65C249.516 122.75 250.816 123.85 252.866 123.85C253.766 123.85 254.716 123.65 255.566 123.3V128.8C254.616 129.1 253.316 129.35 251.716 129.35C246.466 129.35 242.566 127.05 242.566 120.4V106.85H238.616V101.4H242.566V95H249.516V101.4H255.566V106.85Z" fill="#262626"/>
</svg>
