<svg width="207" height="135" viewBox="0 0 207 135" fill="none" xmlns="http://www.w3.org/2000/svg">
<path d="M60.6775 98.4824L60.6777 98.4782C61.1553 83.0266 49.5953 72.8399 35.7953 72.8399C27.0406 72.8399 19.8494 77.4701 15.6591 83.8924C15.6861 83.4832 15.7249 83.0687 15.7769 82.6477L15.7846 82.5853L15.7884 82.5226C16.8475 64.9646 26.7171 48.527 41.3364 35.9303C55.949 23.3393 75.1509 14.7313 94.525 12.7729L97.3028 12.4921L96.1432 9.95233L93.5028 4.16941L92.8749 2.79428L91.3807 3.02314C69.2361 6.41479 47.425 16.358 30.8979 30.9124C14.3704 45.4672 3.02713 64.7337 2.11317 86.7477C1.43671 97.7483 3.80445 107.474 8.99217 114.506C14.2254 121.599 22.2048 125.772 32.2747 125.772C48.3746 125.772 60.2039 112.846 60.6775 98.4824ZM136.5 129.555V132.159L139.015 131.488C155.104 127.196 171.424 119.261 183.739 106.241C196.093 93.1803 204.309 75.1129 204.309 50.8185C204.309 22.2777 188.96 2.55517 169.305 2.55517C153.169 2.55517 143.101 14.6416 143.101 28.1317C143.101 40.8604 153.737 51.484 167.544 51.484C178.531 51.484 185.998 44.9761 189.164 36.8338C191.014 41.8858 191.948 47.4306 191.948 53.4876C191.948 93.2293 164.252 114.44 137.958 121.847L136.5 122.258V123.772V129.555Z" fill="#262626" stroke="#262626" stroke-width="4"/>
</svg>
