<svg width="340" height="568" viewBox="0 0 340 568" fill="none" xmlns="http://www.w3.org/2000/svg">
<rect width="340" height="568" fill="#E7BFC3"/>
<g clip-path="url(#clip0_126_226)">
<rect x="13.5" y="15.5" width="312.275" height="537" rx="15.5" fill="#E7BFC3" stroke="white" stroke-width="3"/>
</g>
<path d="M84.74 378.63C82.36 378.63 80.26 378.14 78.44 377.16C76.6433 376.157 75.2317 374.745 74.205 372.925C73.2017 371.082 72.7 368.912 72.7 366.415C72.7 363.988 73.2017 361.865 74.205 360.045C75.2083 358.225 76.655 356.813 78.545 355.81C80.4583 354.783 82.7683 354.27 85.475 354.27C86.7117 354.27 87.855 354.41 88.905 354.69C89.9783 354.97 90.9933 355.378 91.95 355.915L92.09 360.815H91.74L89.78 357.175C89.4767 356.592 89.1967 356.172 88.94 355.915C88.6833 355.658 88.3567 355.46 87.96 355.32C87.5867 355.203 87.2367 355.122 86.91 355.075C86.6067 355.005 86.1983 354.97 85.685 354.97C84.2383 354.97 82.955 355.355 81.835 356.125C80.7383 356.895 79.8867 358.12 79.28 359.8C78.6733 361.48 78.37 363.685 78.37 366.415C78.37 369.122 78.65 371.327 79.21 373.03C79.7933 374.733 80.61 375.982 81.66 376.775C82.71 377.545 83.9233 377.93 85.3 377.93C85.51 377.93 85.7083 377.918 85.895 377.895C86.105 377.848 86.3033 377.802 86.49 377.755C86.9333 377.685 87.225 377.498 87.365 377.195C87.505 376.892 87.575 376.53 87.575 376.11V369.18C87.575 368.27 87.1083 367.71 86.175 367.5L84.565 367.08V366.73H94.435V367.08L93.945 367.22C93.0583 367.5 92.615 368.083 92.615 368.97V376.565C91.4017 377.242 90.165 377.755 88.905 378.105C87.6683 378.455 86.28 378.63 84.74 378.63ZM99.8688 358.82C99.0754 358.82 98.3988 358.575 97.8388 358.085C97.3021 357.572 97.0338 356.93 97.0338 356.16C97.0338 355.367 97.3021 354.725 97.8388 354.235C98.3988 353.745 99.0754 353.5 99.8688 353.5C100.662 353.5 101.327 353.745 101.864 354.235C102.4 354.725 102.669 355.367 102.669 356.16C102.669 356.93 102.4 357.572 101.864 358.085C101.327 358.575 100.662 358.82 99.8688 358.82ZM95.7388 378V377.65L96.2288 377.51C96.6954 377.37 97.0104 377.16 97.1738 376.88C97.3604 376.6 97.4538 376.227 97.4538 375.76V364.805C97.4538 364.315 97.3604 363.953 97.1738 363.72C97.0104 363.463 96.6954 363.288 96.2288 363.195L95.7388 363.09V362.74L102.144 360.675L102.494 361.025L102.389 365.995V375.795C102.389 376.262 102.47 376.635 102.634 376.915C102.82 377.195 103.135 377.405 103.579 377.545L103.929 377.65V378H95.7388ZM114.333 378.525C112.56 378.525 111.02 378.163 109.713 377.44C108.407 376.693 107.392 375.643 106.668 374.29C105.968 372.937 105.618 371.35 105.618 369.53C105.618 367.71 105.992 366.135 106.738 364.805C107.508 363.475 108.547 362.448 109.853 361.725C111.183 361.002 112.677 360.64 114.333 360.64C115.99 360.64 117.472 361.002 118.778 361.725C120.085 362.425 121.112 363.44 121.858 364.77C122.628 366.1 123.013 367.687 123.013 369.53C123.013 371.373 122.652 372.972 121.928 374.325C121.228 375.655 120.225 376.693 118.918 377.44C117.635 378.163 116.107 378.525 114.333 378.525ZM114.333 377.825C115.15 377.825 115.803 377.592 116.293 377.125C116.783 376.658 117.133 375.83 117.343 374.64C117.577 373.45 117.693 371.77 117.693 369.6C117.693 367.407 117.577 365.715 117.343 364.525C117.133 363.335 116.783 362.507 116.293 362.04C115.803 361.573 115.15 361.34 114.333 361.34C113.517 361.34 112.852 361.573 112.338 362.04C111.848 362.507 111.487 363.335 111.253 364.525C111.043 365.715 110.938 367.407 110.938 369.6C110.938 371.77 111.043 373.45 111.253 374.64C111.487 375.83 111.848 376.658 112.338 377.125C112.852 377.592 113.517 377.825 114.333 377.825ZM128.751 358.82C127.957 358.82 127.281 358.575 126.721 358.085C126.184 357.572 125.916 356.93 125.916 356.16C125.916 355.367 126.184 354.725 126.721 354.235C127.281 353.745 127.957 353.5 128.751 353.5C129.544 353.5 130.209 353.745 130.746 354.235C131.282 354.725 131.551 355.367 131.551 356.16C131.551 356.93 131.282 357.572 130.746 358.085C130.209 358.575 129.544 358.82 128.751 358.82ZM124.621 378V377.65L125.111 377.51C125.577 377.37 125.892 377.16 126.056 376.88C126.242 376.6 126.336 376.227 126.336 375.76V364.805C126.336 364.315 126.242 363.953 126.056 363.72C125.892 363.463 125.577 363.288 125.111 363.195L124.621 363.09V362.74L131.026 360.675L131.376 361.025L131.271 365.995V375.795C131.271 376.262 131.352 376.635 131.516 376.915C131.702 377.195 132.017 377.405 132.461 377.545L132.811 377.65V378H124.621ZM139.47 378.525C138.117 378.525 136.973 378.14 136.04 377.37C135.13 376.6 134.675 375.492 134.675 374.045C134.675 372.948 135.235 371.945 136.355 371.035C137.475 370.102 139.237 369.402 141.64 368.935C142.013 368.865 142.433 368.795 142.9 368.725C143.367 368.632 143.857 368.538 144.37 368.445V365.68C144.37 364.093 144.172 362.985 143.775 362.355C143.402 361.702 142.807 361.375 141.99 361.375C141.43 361.375 140.987 361.562 140.66 361.935C140.333 362.285 140.123 362.903 140.03 363.79L139.96 364.175C139.913 365.178 139.668 365.913 139.225 366.38C138.782 366.847 138.233 367.08 137.58 367.08C136.973 367.08 136.472 366.893 136.075 366.52C135.678 366.147 135.48 365.645 135.48 365.015C135.48 364.058 135.807 363.253 136.46 362.6C137.137 361.947 138.023 361.457 139.12 361.13C140.217 360.803 141.407 360.64 142.69 360.64C144.767 360.64 146.365 361.153 147.485 362.18C148.628 363.183 149.2 364.828 149.2 367.115V374.85C149.2 375.9 149.69 376.425 150.67 376.425H151.44L151.755 376.705C151.312 377.265 150.822 377.697 150.285 378C149.772 378.303 149.037 378.455 148.08 378.455C147.053 378.455 146.237 378.222 145.63 377.755C145.047 377.265 144.662 376.623 144.475 375.83C143.775 376.577 143.052 377.218 142.305 377.755C141.582 378.268 140.637 378.525 139.47 378.525ZM141.605 376.39C142.072 376.39 142.503 376.285 142.9 376.075C143.32 375.842 143.81 375.492 144.37 375.025V369.145C144.137 369.192 143.903 369.238 143.67 369.285C143.437 369.332 143.168 369.378 142.865 369.425C141.792 369.705 140.928 370.183 140.275 370.86C139.645 371.513 139.33 372.4 139.33 373.52C139.33 374.477 139.552 375.2 139.995 375.69C140.438 376.157 140.975 376.39 141.605 376.39ZM160.167 378V377.65L160.797 377.405C161.264 377.218 161.579 376.985 161.742 376.705C161.929 376.425 162.022 376.052 162.022 375.585V357.315C162.022 356.825 161.929 356.44 161.742 356.16C161.579 355.88 161.264 355.658 160.797 355.495L160.167 355.25V354.9H170.212C173.059 354.9 175.112 355.425 176.372 356.475C177.632 357.502 178.262 358.808 178.262 360.395C178.262 361.585 177.796 362.67 176.862 363.65C175.952 364.607 174.377 365.283 172.137 365.68C174.704 365.96 176.582 366.637 177.772 367.71C178.962 368.76 179.557 370.043 179.557 371.56C179.557 372.307 179.394 373.065 179.067 373.835C178.741 374.582 178.181 375.27 177.387 375.9C176.617 376.53 175.556 377.043 174.202 377.44C172.849 377.813 171.134 378 169.057 378H160.167ZM167.202 365.645H168.707C170.271 365.645 171.391 365.283 172.067 364.56C172.767 363.837 173.117 362.577 173.117 360.78C173.117 358.913 172.802 357.583 172.172 356.79C171.542 355.997 170.516 355.6 169.092 355.6H167.202V365.645ZM167.202 377.3H168.952C170.702 377.3 171.997 376.833 172.837 375.9C173.701 374.967 174.132 373.508 174.132 371.525C174.132 369.658 173.724 368.328 172.907 367.535C172.091 366.742 170.749 366.345 168.882 366.345H167.202V377.3ZM190.006 360.64C191.522 360.64 192.817 360.955 193.891 361.585C194.964 362.192 195.781 363.032 196.341 364.105C196.924 365.155 197.216 366.357 197.216 367.71C197.216 367.967 197.204 368.235 197.181 368.515C197.157 368.772 197.111 369.005 197.041 369.215H186.611C186.634 371.735 187.077 373.555 187.941 374.675C188.827 375.772 190.134 376.32 191.861 376.32C193.027 376.32 193.972 376.133 194.696 375.76C195.419 375.387 196.096 374.838 196.726 374.115L197.076 374.43C196.352 375.713 195.384 376.717 194.171 377.44C192.981 378.163 191.546 378.525 189.866 378.525C188.209 378.525 186.739 378.175 185.456 377.475C184.172 376.752 183.169 375.725 182.446 374.395C181.722 373.065 181.361 371.478 181.361 369.635C181.361 367.722 181.781 366.1 182.621 364.77C183.461 363.417 184.534 362.39 185.841 361.69C187.171 360.99 188.559 360.64 190.006 360.64ZM189.901 361.34C189.224 361.34 188.641 361.55 188.151 361.97C187.684 362.367 187.311 363.09 187.031 364.14C186.774 365.167 186.634 366.625 186.611 368.515H192.596C192.829 365.972 192.736 364.14 192.316 363.02C191.896 361.9 191.091 361.34 189.901 361.34ZM203.933 378.525C202.58 378.525 201.436 378.14 200.503 377.37C199.593 376.6 199.138 375.492 199.138 374.045C199.138 372.948 199.698 371.945 200.818 371.035C201.938 370.102 203.7 369.402 206.103 368.935C206.476 368.865 206.896 368.795 207.363 368.725C207.83 368.632 208.32 368.538 208.833 368.445V365.68C208.833 364.093 208.635 362.985 208.238 362.355C207.865 361.702 207.27 361.375 206.453 361.375C205.893 361.375 205.45 361.562 205.123 361.935C204.796 362.285 204.586 362.903 204.493 363.79L204.423 364.175C204.376 365.178 204.131 365.913 203.688 366.38C203.245 366.847 202.696 367.08 202.043 367.08C201.436 367.08 200.935 366.893 200.538 366.52C200.141 366.147 199.943 365.645 199.943 365.015C199.943 364.058 200.27 363.253 200.923 362.6C201.6 361.947 202.486 361.457 203.583 361.13C204.68 360.803 205.87 360.64 207.153 360.64C209.23 360.64 210.828 361.153 211.948 362.18C213.091 363.183 213.663 364.828 213.663 367.115V374.85C213.663 375.9 214.153 376.425 215.133 376.425H215.903L216.218 376.705C215.775 377.265 215.285 377.697 214.748 378C214.235 378.303 213.5 378.455 212.543 378.455C211.516 378.455 210.7 378.222 210.093 377.755C209.51 377.265 209.125 376.623 208.938 375.83C208.238 376.577 207.515 377.218 206.768 377.755C206.045 378.268 205.1 378.525 203.933 378.525ZM206.068 376.39C206.535 376.39 206.966 376.285 207.363 376.075C207.783 375.842 208.273 375.492 208.833 375.025V369.145C208.6 369.192 208.366 369.238 208.133 369.285C207.9 369.332 207.631 369.378 207.328 369.425C206.255 369.705 205.391 370.183 204.738 370.86C204.108 371.513 203.793 372.4 203.793 373.52C203.793 374.477 204.015 375.2 204.458 375.69C204.901 376.157 205.438 376.39 206.068 376.39ZM223 378.525C222.09 378.525 221.25 378.35 220.48 378C219.733 377.65 219.138 377.09 218.695 376.32C218.275 375.527 218.077 374.488 218.1 373.205L218.205 364.21C218.205 363.673 218.112 363.288 217.925 363.055C217.738 362.822 217.447 362.658 217.05 362.565L216.63 362.425V362.075L222.895 360.85L223.245 361.2L223.07 366.17V374.605C223.07 375.352 223.28 375.9 223.7 376.25C224.143 376.6 224.692 376.775 225.345 376.775C225.998 376.775 226.582 376.682 227.095 376.495C227.608 376.308 228.122 376.028 228.635 375.655L228.775 364.245C228.775 363.708 228.693 363.335 228.53 363.125C228.367 362.892 228.063 362.728 227.62 362.635L227.27 362.53V362.18L233.395 360.85L233.745 361.2L233.64 366.17V375.655C233.64 376.168 233.71 376.565 233.85 376.845C233.99 377.125 234.293 377.358 234.76 377.545L235.11 377.65V378L228.985 378.35L228.67 376.285C227.9 376.915 227.06 377.452 226.15 377.895C225.263 378.315 224.213 378.525 223 378.525ZM243.173 378.525C241.68 378.525 240.513 378.152 239.673 377.405C238.857 376.658 238.448 375.468 238.448 373.835V361.865H236.033V361.515L236.873 361.375C237.597 361.212 238.215 360.978 238.728 360.675C239.265 360.372 239.79 359.963 240.303 359.45L243.173 356.265H243.523L243.418 361.165H247.338V361.865H243.383V374.465C243.383 375.282 243.558 375.9 243.908 376.32C244.282 376.74 244.748 376.95 245.308 376.95C245.798 376.95 246.23 376.833 246.603 376.6C246.977 376.343 247.35 376.005 247.723 375.585L248.073 375.935C247.607 376.728 246.965 377.358 246.148 377.825C245.332 378.292 244.34 378.525 243.173 378.525ZM252.492 386.4C251.559 386.4 250.812 386.167 250.252 385.7C249.716 385.233 249.447 384.638 249.447 383.915C249.447 383.262 249.681 382.737 250.147 382.34C250.614 381.943 251.139 381.745 251.722 381.745C252.306 381.745 252.796 381.862 253.192 382.095C253.589 382.352 253.939 382.713 254.242 383.18L254.487 383.46C255.001 384.16 255.514 384.148 256.027 383.425C256.237 383.075 256.471 382.608 256.727 382.025C257.007 381.465 257.322 380.707 257.672 379.75L250.882 363.51C250.719 363.067 250.544 362.717 250.357 362.46C250.171 362.18 249.867 361.947 249.447 361.76L248.817 361.515V361.165H257.532V361.48L256.832 361.76C256.319 361.923 256.051 362.192 256.027 362.565C256.027 362.915 256.121 363.358 256.307 363.895L259.947 373.345L263.412 363.79C263.599 363.253 263.669 362.81 263.622 362.46C263.576 362.087 263.284 361.83 262.747 361.69L262.012 361.515V361.165H266.877V361.515L266.107 361.76C265.571 361.923 265.197 362.157 264.987 362.46C264.777 362.763 264.579 363.183 264.392 363.72L258.757 379.085C257.847 381.535 256.937 383.367 256.027 384.58C255.117 385.793 253.939 386.4 252.492 386.4Z" fill="white"/>
<path d="M169.5 312C181.421 312 201.289 304.062 201.289 268.344C201.289 232.625 169.5 185 169.5 185C169.5 185 137.711 232.625 137.711 268.344C137.711 304.062 157.579 312 169.5 312ZM169.5 312C157.579 312 146.03 310.248 129.763 300.094C97.9737 280.25 94 216.75 94 216.75C94 216.75 129.763 220.719 145.658 232.625M169.5 312C181.421 312 192.97 310.248 209.237 300.094C241.026 280.25 245 216.75 245 216.75C245 216.75 209.237 220.719 193.342 232.625" stroke="white" stroke-width="5"/>
<defs>
<clipPath id="clip0_126_226">
<rect width="315.275" height="540" fill="white" transform="translate(12 14)"/>
</clipPath>
</defs>
</svg>
