<svg width="240" height="237" viewBox="0 0 240 237" fill="none" xmlns="http://www.w3.org/2000/svg">
<path d="M15.5 160.037V136.86V98.1819C15.5 75.6452 24.6833 54.7577 39.7205 39.7205C54.7577 24.6833 75.6452 15.5 98.1819 15.5H136.86H160.037V38.6777V77.3554C160.037 99.8921 150.854 120.78 135.817 135.817C120.78 150.854 99.8921 160.037 77.3554 160.037H38.6777H15.5Z" stroke="white" stroke-width="31"/>
<path opacity="0.6" d="M79.9629 220.531V197.354V158.676C79.9629 136.139 89.1462 115.252 104.183 100.215C119.221 85.1774 140.108 75.9941 162.645 75.9941H201.322H224.5V99.1718V137.85C224.5 160.386 215.317 181.274 200.28 196.311C185.242 211.348 164.355 220.531 141.818 220.531H103.141H79.9629Z" stroke="white" stroke-width="31"/>
</svg>
