<svg width="340" height="568" viewBox="0 0 340 568" fill="none" xmlns="http://www.w3.org/2000/svg">
<rect width="340" height="568" fill="#5DA970"/>
<g clip-path="url(#clip0_2_77)">
<rect x="13.5" y="15.5" width="312.275" height="537" rx="15.5" stroke="#DCF5E9" stroke-width="3"/>
<path opacity="0.6" d="M74.9211 379.5V345.112V303.225C74.9211 276.277 85.9005 251.316 103.872 233.345C121.843 215.374 146.804 204.395 173.751 204.395H215.639H250.026V238.782V280.67C250.026 307.617 239.047 332.578 221.076 350.55C203.105 368.521 178.144 379.5 151.196 379.5H109.309H74.9211Z" stroke="#B8E2CD" stroke-width="15"/>
<path d="M2.5 316.132V280.747V237.862C2.5 210.167 13.5229 184.547 31.5125 166.129C49.4985 147.715 74.4412 136.5 101.33 136.5H143.218H177.605V171.885V214.77C177.605 242.465 166.582 268.084 148.593 286.502C130.607 304.916 105.664 316.132 78.7752 316.132H36.8876H2.5Z" stroke="#DCF5E9" stroke-width="15"/>
</g>
<path d="M40.1078 450C39.8944 450 39.7131 449.925 39.5638 449.776C39.4144 449.627 39.3398 449.445 39.3398 449.232V428.4C39.3398 428.165 39.4144 427.973 39.5638 427.824C39.7131 427.675 39.8944 427.6 40.1078 427.6H42.9238C43.1584 427.6 43.3504 427.675 43.4998 427.824C43.6491 427.973 43.7238 428.165 43.7238 428.4V435.888L50.9558 428.176C51.0411 428.069 51.1798 427.952 51.3718 427.824C51.5851 427.675 51.8624 427.6 52.2038 427.6H55.3718C55.5424 427.6 55.6918 427.664 55.8198 427.792C55.9691 427.92 56.0438 428.08 56.0438 428.272C56.0438 428.421 56.0011 428.549 55.9158 428.656L47.1158 438.32L56.5238 448.912C56.6304 449.04 56.6838 449.179 56.6838 449.328C56.6838 449.52 56.6091 449.68 56.4598 449.808C56.3318 449.936 56.1824 450 56.0118 450H52.7158C52.3531 450 52.0651 449.925 51.8518 449.776C51.6598 449.605 51.5318 449.488 51.4678 449.424L43.7238 440.944V449.232C43.7238 449.445 43.6491 449.627 43.4998 449.776C43.3504 449.925 43.1584 450 42.9238 450H40.1078ZM59.9745 450C59.7612 450 59.5798 449.925 59.4305 449.776C59.2812 449.627 59.2065 449.445 59.2065 449.232V428.048C59.2065 427.835 59.2812 427.653 59.4305 427.504C59.5798 427.355 59.7612 427.28 59.9745 427.28H62.6305C62.8438 427.28 63.0252 427.355 63.1745 427.504C63.3238 427.653 63.3985 427.835 63.3985 428.048V449.232C63.3985 449.445 63.3238 449.627 63.1745 449.776C63.0252 449.925 62.8438 450 62.6305 450H59.9745ZM69.0988 450C68.8854 450 68.7041 449.925 68.5548 449.776C68.4054 449.627 68.3307 449.445 68.3307 449.232V434.128C68.3307 433.915 68.4054 433.733 68.5548 433.584C68.7041 433.435 68.8854 433.36 69.0988 433.36H71.7548C71.9894 433.36 72.1708 433.435 72.2988 433.584C72.4481 433.733 72.5228 433.915 72.5228 434.128V449.232C72.5228 449.445 72.4481 449.627 72.2988 449.776C72.1708 449.925 71.9894 450 71.7548 450H69.0988ZM68.9708 430.608C68.7361 430.608 68.5441 430.544 68.3948 430.416C68.2668 430.267 68.2028 430.075 68.2028 429.84V427.536C68.2028 427.323 68.2668 427.141 68.3948 426.992C68.5441 426.843 68.7361 426.768 68.9708 426.768H71.8828C72.1174 426.768 72.3094 426.843 72.4588 426.992C72.6081 427.141 72.6828 427.323 72.6828 427.536V429.84C72.6828 430.075 72.6081 430.267 72.4588 430.416C72.3094 430.544 72.1174 430.608 71.8828 430.608H68.9708ZM78.1925 450C77.9792 450 77.7978 449.925 77.6485 449.776C77.4992 449.627 77.4245 449.445 77.4245 449.232V434.128C77.4245 433.915 77.4992 433.733 77.6485 433.584C77.7978 433.435 77.9792 433.36 78.1925 433.36H80.6885C80.9018 433.36 81.0832 433.435 81.2325 433.584C81.3818 433.733 81.4565 433.915 81.4565 434.128V435.216C81.9045 434.619 82.5018 434.117 83.2485 433.712C84.0165 433.285 84.9232 433.061 85.9685 433.04C88.4005 432.997 90.0965 433.947 91.0565 435.888C91.5472 435.035 92.2512 434.352 93.1685 433.84C94.1072 433.307 95.1418 433.04 96.2725 433.04C97.3818 433.04 98.3845 433.296 99.2805 433.808C100.198 434.32 100.913 435.099 101.425 436.144C101.958 437.168 102.225 438.469 102.225 440.048V449.232C102.225 449.445 102.15 449.627 102.001 449.776C101.851 449.925 101.67 450 101.457 450H98.8325C98.6192 450 98.4378 449.925 98.2885 449.776C98.1392 449.627 98.0645 449.445 98.0645 449.232V440.304C98.0645 439.344 97.9258 438.587 97.6485 438.032C97.3712 437.456 96.9978 437.051 96.5285 436.816C96.0592 436.581 95.5365 436.464 94.9605 436.464C94.4912 436.464 94.0218 436.581 93.5525 436.816C93.0832 437.051 92.6992 437.456 92.4005 438.032C92.1018 438.587 91.9525 439.344 91.9525 440.304V449.232C91.9525 449.445 91.8778 449.627 91.7285 449.776C91.5792 449.925 91.3978 450 91.1845 450H88.5605C88.3258 450 88.1338 449.925 87.9845 449.776C87.8565 449.627 87.7925 449.445 87.7925 449.232V440.304C87.7925 439.344 87.6432 438.587 87.3445 438.032C87.0458 437.456 86.6618 437.051 86.1925 436.816C85.7232 436.581 85.2218 436.464 84.6885 436.464C84.1978 436.464 83.7178 436.592 83.2485 436.848C82.7792 437.083 82.3952 437.477 82.0965 438.032C81.7978 438.587 81.6485 439.344 81.6485 440.304V449.232C81.6485 449.445 81.5738 449.627 81.4245 449.776C81.2752 449.925 81.0938 450 80.8805 450H78.1925ZM111.132 450.32C110.022 450.32 109.02 450.107 108.124 449.68C107.228 449.232 106.513 448.645 105.98 447.92C105.468 447.173 105.212 446.341 105.212 445.424C105.212 443.931 105.809 442.747 107.004 441.872C108.22 440.976 109.82 440.379 111.804 440.08L116.188 439.44V438.768C116.188 437.872 115.964 437.179 115.516 436.688C115.068 436.197 114.3 435.952 113.212 435.952C112.444 435.952 111.814 436.112 111.324 436.432C110.854 436.731 110.502 437.136 110.268 437.648C110.097 437.925 109.852 438.064 109.532 438.064H107.004C106.769 438.064 106.588 438 106.46 437.872C106.353 437.744 106.299 437.573 106.299 437.36C106.321 437.019 106.46 436.603 106.716 436.112C106.972 435.621 107.377 435.152 107.932 434.704C108.486 434.235 109.201 433.84 110.076 433.52C110.95 433.2 112.006 433.04 113.244 433.04C114.588 433.04 115.718 433.211 116.636 433.552C117.574 433.872 118.321 434.309 118.876 434.864C119.43 435.419 119.836 436.069 120.092 436.816C120.348 437.563 120.476 438.352 120.476 439.184V449.232C120.476 449.445 120.401 449.627 120.252 449.776C120.102 449.925 119.921 450 119.708 450H117.116C116.881 450 116.689 449.925 116.54 449.776C116.412 449.627 116.348 449.445 116.348 449.232V447.984C116.07 448.389 115.697 448.773 115.228 449.136C114.758 449.477 114.182 449.765 113.5 450C112.838 450.213 112.049 450.32 111.132 450.32ZM112.22 447.28C112.966 447.28 113.638 447.12 114.236 446.8C114.854 446.48 115.334 445.989 115.676 445.328C116.038 444.645 116.22 443.792 116.22 442.768V442.096L113.02 442.608C111.761 442.8 110.822 443.109 110.204 443.536C109.585 443.963 109.276 444.485 109.276 445.104C109.276 445.573 109.414 445.979 109.692 446.32C109.99 446.64 110.364 446.885 110.812 447.056C111.26 447.205 111.729 447.28 112.22 447.28ZM125.381 450C125.167 450 124.986 449.925 124.837 449.776C124.687 449.627 124.613 449.445 124.613 449.232V428.048C124.613 427.835 124.687 427.653 124.837 427.504C124.986 427.355 125.167 427.28 125.381 427.28H127.973C128.207 427.28 128.389 427.355 128.517 427.504C128.666 427.653 128.741 427.835 128.741 428.048V438.992L134.117 433.904C134.309 433.733 134.479 433.605 134.629 433.52C134.778 433.413 135.002 433.36 135.301 433.36H138.277C138.49 433.36 138.661 433.424 138.789 433.552C138.917 433.68 138.981 433.851 138.981 434.064C138.981 434.149 138.959 434.245 138.917 434.352C138.874 434.459 138.789 434.555 138.661 434.64L132.069 440.816L139.461 448.752C139.674 448.965 139.781 449.147 139.781 449.296C139.781 449.509 139.706 449.68 139.557 449.808C139.429 449.936 139.269 450 139.077 450H136.037C135.717 450 135.482 449.957 135.333 449.872C135.205 449.765 135.045 449.627 134.853 449.456L128.741 443.024V449.232C128.741 449.445 128.666 449.627 128.517 449.776C128.389 449.925 128.207 450 127.973 450H125.381ZM146.694 450.32C145.585 450.32 144.582 450.107 143.686 449.68C142.79 449.232 142.075 448.645 141.542 447.92C141.03 447.173 140.774 446.341 140.774 445.424C140.774 443.931 141.371 442.747 142.566 441.872C143.782 440.976 145.382 440.379 147.366 440.08L151.75 439.44V438.768C151.75 437.872 151.526 437.179 151.078 436.688C150.63 436.197 149.862 435.952 148.774 435.952C148.006 435.952 147.377 436.112 146.886 436.432C146.417 436.731 146.065 437.136 145.83 437.648C145.659 437.925 145.414 438.064 145.094 438.064H142.566C142.331 438.064 142.15 438 142.022 437.872C141.915 437.744 141.862 437.573 141.862 437.36C141.883 437.019 142.022 436.603 142.278 436.112C142.534 435.621 142.939 435.152 143.494 434.704C144.049 434.235 144.763 433.84 145.638 433.52C146.513 433.2 147.569 433.04 148.806 433.04C150.15 433.04 151.281 433.211 152.198 433.552C153.137 433.872 153.883 434.309 154.438 434.864C154.993 435.419 155.398 436.069 155.654 436.816C155.91 437.563 156.038 438.352 156.038 439.184V449.232C156.038 449.445 155.963 449.627 155.814 449.776C155.665 449.925 155.483 450 155.27 450H152.678C152.443 450 152.251 449.925 152.102 449.776C151.974 449.627 151.91 449.445 151.91 449.232V447.984C151.633 448.389 151.259 448.773 150.79 449.136C150.321 449.477 149.745 449.765 149.062 450C148.401 450.213 147.611 450.32 146.694 450.32ZM147.782 447.28C148.529 447.28 149.201 447.12 149.798 446.8C150.417 446.48 150.897 445.989 151.238 445.328C151.601 444.645 151.782 443.792 151.782 442.768V442.096L148.582 442.608C147.323 442.8 146.385 443.109 145.766 443.536C145.147 443.963 144.838 444.485 144.838 445.104C144.838 445.573 144.977 445.979 145.254 446.32C145.553 446.64 145.926 446.885 146.374 447.056C146.822 447.205 147.291 447.28 147.782 447.28ZM160.911 450C160.698 450 160.517 449.925 160.367 449.776C160.218 449.627 160.143 449.445 160.143 449.232V434.128C160.143 433.915 160.218 433.733 160.367 433.584C160.517 433.435 160.698 433.36 160.911 433.36H163.407C163.621 433.36 163.802 433.435 163.951 433.584C164.101 433.733 164.175 433.915 164.175 434.128V435.216C164.623 434.619 165.221 434.117 165.967 433.712C166.735 433.285 167.642 433.061 168.687 433.04C171.119 432.997 172.815 433.947 173.775 435.888C174.266 435.035 174.97 434.352 175.887 433.84C176.826 433.307 177.861 433.04 178.991 433.04C180.101 433.04 181.103 433.296 181.999 433.808C182.917 434.32 183.631 435.099 184.143 436.144C184.677 437.168 184.943 438.469 184.943 440.048V449.232C184.943 449.445 184.869 449.627 184.719 449.776C184.57 449.925 184.389 450 184.175 450H181.551C181.338 450 181.157 449.925 181.007 449.776C180.858 449.627 180.783 449.445 180.783 449.232V440.304C180.783 439.344 180.645 438.587 180.367 438.032C180.09 437.456 179.717 437.051 179.247 436.816C178.778 436.581 178.255 436.464 177.679 436.464C177.21 436.464 176.741 436.581 176.271 436.816C175.802 437.051 175.418 437.456 175.119 438.032C174.821 438.587 174.671 439.344 174.671 440.304V449.232C174.671 449.445 174.597 449.627 174.447 449.776C174.298 449.925 174.117 450 173.903 450H171.279C171.045 450 170.853 449.925 170.703 449.776C170.575 449.627 170.511 449.445 170.511 449.232V440.304C170.511 439.344 170.362 438.587 170.063 438.032C169.765 437.456 169.381 437.051 168.911 436.816C168.442 436.581 167.941 436.464 167.407 436.464C166.917 436.464 166.437 436.592 165.967 436.848C165.498 437.083 165.114 437.477 164.815 438.032C164.517 438.587 164.367 439.344 164.367 440.304V449.232C164.367 449.445 164.293 449.627 164.143 449.776C163.994 449.925 163.813 450 163.599 450H160.911ZM189.818 456.08C189.605 456.08 189.424 456.005 189.274 455.856C189.125 455.707 189.05 455.525 189.05 455.312V434.128C189.05 433.915 189.125 433.733 189.274 433.584C189.424 433.435 189.605 433.36 189.818 433.36H192.346C192.581 433.36 192.762 433.435 192.89 433.584C193.04 433.733 193.114 433.915 193.114 434.128V435.408C193.626 434.725 194.298 434.16 195.13 433.712C195.962 433.264 196.997 433.04 198.234 433.04C199.365 433.04 200.346 433.221 201.178 433.584C202.01 433.947 202.704 434.469 203.258 435.152C203.813 435.813 204.24 436.603 204.538 437.52C204.837 438.437 205.008 439.451 205.05 440.56C205.072 440.923 205.082 441.296 205.082 441.68C205.082 442.064 205.072 442.448 205.05 442.832C205.029 443.899 204.869 444.891 204.57 445.808C204.272 446.704 203.834 447.493 203.258 448.176C202.704 448.837 202.01 449.36 201.178 449.744C200.346 450.128 199.365 450.32 198.234 450.32C197.082 450.32 196.101 450.117 195.29 449.712C194.48 449.285 193.818 448.731 193.306 448.048V455.312C193.306 455.525 193.232 455.707 193.082 455.856C192.954 456.005 192.773 456.08 192.538 456.08H189.818ZM197.05 446.896C197.968 446.896 198.682 446.704 199.194 446.32C199.706 445.915 200.069 445.392 200.282 444.752C200.517 444.112 200.656 443.408 200.698 442.64C200.741 442 200.741 441.36 200.698 440.72C200.656 439.952 200.517 439.248 200.282 438.608C200.069 437.968 199.706 437.456 199.194 437.072C198.682 436.667 197.968 436.464 197.05 436.464C196.176 436.464 195.461 436.667 194.906 437.072C194.373 437.477 193.978 438 193.722 438.64C193.488 439.259 193.349 439.899 193.306 440.56C193.285 440.944 193.274 441.349 193.274 441.776C193.274 442.203 193.285 442.619 193.306 443.024C193.328 443.664 193.477 444.283 193.754 444.88C194.032 445.456 194.437 445.936 194.97 446.32C195.504 446.704 196.197 446.896 197.05 446.896ZM215.843 450.32C213.475 450.32 211.597 449.637 210.211 448.272C208.824 446.907 208.077 444.965 207.971 442.448C207.949 442.235 207.939 441.968 207.939 441.648C207.939 441.307 207.949 441.04 207.971 440.848C208.056 439.248 208.419 437.861 209.059 436.688C209.72 435.515 210.627 434.619 211.779 434C212.931 433.36 214.285 433.04 215.843 433.04C217.571 433.04 219.021 433.403 220.195 434.128C221.368 434.832 222.253 435.824 222.851 437.104C223.448 438.363 223.747 439.824 223.747 441.488V442.16C223.747 442.373 223.672 442.555 223.523 442.704C223.373 442.853 223.181 442.928 222.947 442.928H212.323C212.323 442.928 212.323 442.96 212.323 443.024C212.323 443.088 212.323 443.141 212.323 443.184C212.344 443.931 212.483 444.624 212.739 445.264C213.016 445.883 213.411 446.384 213.923 446.768C214.456 447.152 215.085 447.344 215.811 447.344C216.408 447.344 216.909 447.259 217.315 447.088C217.72 446.896 218.051 446.683 218.307 446.448C218.563 446.213 218.744 446.021 218.851 445.872C219.043 445.616 219.192 445.467 219.299 445.424C219.427 445.36 219.608 445.328 219.843 445.328H222.595C222.808 445.328 222.979 445.392 223.107 445.52C223.256 445.648 223.32 445.808 223.299 446C223.277 446.341 223.096 446.757 222.755 447.248C222.435 447.739 221.965 448.219 221.347 448.688C220.728 449.157 219.949 449.552 219.011 449.872C218.093 450.171 217.037 450.32 215.843 450.32ZM212.323 440.24H219.395V440.144C219.395 439.312 219.256 438.587 218.979 437.968C218.701 437.349 218.296 436.859 217.763 436.496C217.229 436.133 216.589 435.952 215.843 435.952C215.096 435.952 214.456 436.133 213.923 436.496C213.389 436.859 212.984 437.349 212.707 437.968C212.451 438.587 212.323 439.312 212.323 440.144V440.24ZM227.911 450C227.698 450 227.517 449.925 227.367 449.776C227.218 449.627 227.143 449.445 227.143 449.232V434.128C227.143 433.915 227.218 433.733 227.367 433.584C227.517 433.435 227.698 433.36 227.911 433.36H230.535C230.749 433.36 230.93 433.435 231.079 433.584C231.229 433.733 231.303 433.915 231.303 434.128V435.44C231.858 434.757 232.562 434.192 233.415 433.744C234.29 433.275 235.367 433.04 236.647 433.04C237.949 433.04 239.079 433.339 240.039 433.936C240.999 434.512 241.735 435.333 242.247 436.4C242.781 437.467 243.047 438.747 243.047 440.24V449.232C243.047 449.445 242.973 449.627 242.823 449.776C242.674 449.925 242.493 450 242.279 450H239.463C239.25 450 239.069 449.925 238.919 449.776C238.77 449.627 238.695 449.445 238.695 449.232V440.432C238.695 439.195 238.386 438.224 237.767 437.52C237.17 436.816 236.295 436.464 235.143 436.464C234.034 436.464 233.149 436.816 232.487 437.52C231.826 438.224 231.495 439.195 231.495 440.432V449.232C231.495 449.445 231.421 449.627 231.271 449.776C231.122 449.925 230.941 450 230.727 450H227.911Z" fill="#F5FCF9"/>
<defs>
<clipPath id="clip0_2_77">
<rect width="315.275" height="540" fill="white" transform="translate(12 14)"/>
</clipPath>
</defs>
</svg>
