<svg width="61" height="66" viewBox="0 0 61 66" fill="none" xmlns="http://www.w3.org/2000/svg">
<path d="M15.7894 21.2244V21.8942C15.7894 22.7529 16.2122 23.3282 17.0557 23.3282H26.9347C27.6935 23.3282 28.1163 22.8495 28.1163 21.8942V21.2244C28.1163 20.364 27.6935 19.7905 26.9347 19.7905H17.0557C16.2958 19.7905 15.7894 20.2675 15.7894 21.2244ZM0 63.863C0 64.5329 0.42283 65.0112 1.01393 65.0112H2.28028C2.87139 65.0112 3.209 64.5329 3.209 63.863V14.9148L10.3017 64.0542C10.3853 64.6289 10.8082 65.0112 11.3993 65.0112H12.6656C13.3403 65.0112 13.6779 64.5329 13.6779 63.863V1.14814C13.6779 0.478146 13.3403 0 12.6656 0H11.4828C10.8082 0 10.4705 0.478146 10.4705 1.14814V47.1328L3.88371 0.955052C3.71543 0.287695 3.29261 0 2.70257 0H1.01393C0.42283 0 0 0.478146 0 1.14814V63.863ZM15.3672 7.36187C15.3672 11.7593 18.3222 15.0094 21.9535 15.0094C25.5835 15.0094 28.6222 11.7593 28.6222 7.36187C28.6222 3.25133 25.5835 0 21.9535 0C18.3222 0 15.3672 3.25133 15.3672 7.36187ZM15.7894 31.8363C15.7894 32.6966 16.2122 33.2702 17.0557 33.2702H26.9347C27.6935 33.2702 28.1163 32.7932 28.1163 31.8363V31.1663C28.1163 30.2112 27.6935 29.7325 26.9347 29.7325H17.0557C16.2958 29.7325 15.7894 30.2112 15.7894 31.1663V31.8363ZM18.3222 7.45647C18.3222 5.16205 19.9254 3.34594 21.9535 3.34594C23.9797 3.34594 25.5835 5.16205 25.5835 7.45647C25.5835 9.84736 23.9797 11.6629 21.9535 11.6629C19.9254 11.6629 18.3222 9.84736 18.3222 7.45647ZM42.5541 0H30.395C29.8049 0 29.3827 0.478146 29.3827 1.14814V2.67657C29.3827 3.34594 29.8049 3.82471 30.395 3.82471H39.9368C36.1361 20.7463 31.8313 42.9258 31.7459 63.863C31.7459 64.6289 32.0836 65.0112 32.7599 65.0112H34.5327C35.1239 65.0112 35.5467 64.6289 35.5467 63.863C35.7149 43.6921 39.514 21.4155 43.3976 4.11054C43.5665 3.53716 43.5665 3.15486 43.5665 2.67657V1.14814C43.5665 0.478146 43.1441 0 42.5541 0ZM54.6271 65.0112H56.1474C56.7385 65.0112 57.1597 64.5329 57.1597 63.863V51.7214H59.1859C59.8623 51.7214 60.2 51.4356 60.2 50.6698V49.1413C60.2 48.4718 59.8623 48.0895 59.1859 48.0895H57.1597V38.2424C57.1597 37.573 56.7385 37.1907 56.1474 37.1907H54.6271C54.0359 37.1907 53.6131 37.573 53.6131 38.2424V48.0895H47.7032C51.4181 32.7932 55.2181 16.8268 55.8098 1.14814C55.8098 0.382298 55.387 0 54.7958 0H53.2754C52.6845 0 52.3468 0.382298 52.3468 1.14814C51.7556 16.2534 48.1254 32.4092 44.4105 47.5151C44.2417 47.9931 44.2417 48.3754 44.2417 48.8537V50.6698C44.2417 51.3391 44.6641 51.7214 45.2557 51.7214H53.6131V63.863C53.6131 64.5329 54.0359 65.0112 54.6271 65.0112Z" fill="white"/>
</svg>
