<svg width="340" height="568" viewBox="0 0 340 568" fill="none" xmlns="http://www.w3.org/2000/svg">
<rect width="340" height="568" fill="#CECECE" fill-opacity="0.25"/>
<g clip-path="url(#clip0_94_350)">
<rect x="13.5" y="14.5" width="313" height="538.242" rx="15.5" stroke="#CECECE" stroke-width="3" stroke-dasharray="7 7"/>
<path d="M43.589 314.802C37.0877 314.802 31.3637 313.636 26.417 311.304C21.541 308.901 17.4424 305.757 14.121 301.87C10.8704 297.913 8.39705 293.602 6.70105 288.938C5.07571 284.274 4.26305 279.61 4.26305 274.946V273.25C4.26305 268.374 5.11105 263.604 6.80705 258.94C8.57371 254.276 11.1177 250.036 14.439 246.22C17.831 242.333 21.9297 239.259 26.735 236.998C31.611 234.737 37.229 233.606 43.589 233.606C49.8784 233.606 55.4257 234.737 60.2311 236.998C65.1071 239.259 69.2057 242.333 72.5271 246.22C75.9191 250.036 78.463 254.276 80.159 258.94C81.8551 263.604 82.7031 268.374 82.7031 273.25V274.946C82.7031 279.61 81.8551 284.274 80.159 288.938C78.5337 293.602 76.0957 297.913 72.845 301.87C69.5944 305.757 65.531 308.901 60.655 311.304C55.779 313.636 50.0904 314.802 43.589 314.802ZM43.589 309.502C48.8891 309.502 53.5884 308.513 57.687 306.534C61.8564 304.555 65.3544 301.905 68.1811 298.584C71.0784 295.192 73.2337 291.411 74.6471 287.242C76.1311 283.002 76.8731 278.656 76.8731 274.204C76.8731 269.54 76.0957 265.088 74.5411 260.848C73.057 256.608 70.8664 252.863 67.969 249.612C65.1424 246.291 61.6444 243.676 57.4751 241.768C53.3764 239.86 48.7477 238.906 43.589 238.906C38.3597 238.906 33.6604 239.86 29.491 241.768C25.3924 243.676 21.8944 246.291 18.997 249.612C16.0997 252.863 13.8737 256.608 12.319 260.848C10.835 265.088 10.093 269.54 10.093 274.204C10.093 278.656 10.835 283.002 12.319 287.242C13.803 291.411 15.9584 295.192 18.785 298.584C21.6824 301.905 25.1804 304.555 29.279 306.534C33.4484 308.513 38.2184 309.502 43.589 309.502ZM115.105 313V239.012H120.829V313H115.105ZM90.3011 240.814V235.62H145.633V240.814H90.3011ZM176.231 313L154.395 235.62H160.225L180.683 309.396L178.245 307.806H186.195L183.757 309.396L200.717 239.118H206.123L188.103 313H176.231ZM222.765 313L203.155 239.118H208.667L227.323 309.396L224.673 307.806H232.941L230.291 309.396L249.159 235.62H254.883L234.743 313H222.765ZM263.637 313V304.838H271.057V313H263.637ZM290.551 313V304.838H297.971V313H290.551ZM317.465 313V304.838H324.885V313H317.465Z" fill="#CECECE"/>
</g>
<defs>
<clipPath id="clip0_94_350">
<rect width="316" height="541.242" fill="white" transform="translate(12 13)"/>
</clipPath>
</defs>
</svg>
