<svg width="340" height="568" viewBox="0 0 340 568" fill="none" xmlns="http://www.w3.org/2000/svg">
<rect width="340" height="568" fill="#CECECE" fill-opacity="0.25"/>
<g clip-path="url(#clip0_94_350)">
<rect x="13.5" y="14.5" width="313" height="538.242" rx="15.5" stroke="#CECECE" stroke-width="3"/>
<path d="M40.6246 317.853C33.9393 317.853 28.0533 316.654 22.9666 314.256C17.9526 311.785 13.7379 308.552 10.3226 304.555C6.97992 300.486 4.43659 296.053 2.69259 291.257C1.02125 286.461 0.185586 281.665 0.185586 276.869V275.125C0.185586 270.111 1.05759 265.206 2.80159 260.41C4.61825 255.614 7.23425 251.254 10.6496 247.33C14.1376 243.333 18.3523 240.172 23.2936 237.847C28.3076 235.522 34.0846 234.359 40.6246 234.359C47.0919 234.359 52.7963 235.522 57.7376 237.847C62.7516 240.172 66.9663 243.333 70.3816 247.33C73.8696 251.254 76.4856 255.614 78.2296 260.41C79.9736 265.206 80.8456 270.111 80.8456 275.125V276.869C80.8456 281.665 79.9736 286.461 78.2296 291.257C76.5583 296.053 74.0513 300.486 70.7086 304.555C67.3659 308.552 63.1876 311.785 58.1736 314.256C53.1596 316.654 47.3099 317.853 40.6246 317.853ZM40.6246 312.403C46.0746 312.403 50.9069 311.386 55.1216 309.351C59.4089 307.316 63.0059 304.591 65.9126 301.176C68.8919 297.688 71.1083 293.8 72.5616 289.513C74.0876 285.153 74.8506 280.684 74.8506 276.106C74.8506 271.31 74.0513 266.732 72.4526 262.372C70.9266 258.012 68.6739 254.161 65.6946 250.818C62.7879 247.403 59.1909 244.714 54.9036 242.752C50.6889 240.79 45.9293 239.809 40.6246 239.809C35.2473 239.809 30.4149 240.79 26.1276 242.752C21.9129 244.714 18.3159 247.403 15.3366 250.818C12.3573 254.161 10.0683 258.012 8.46959 262.372C6.94359 266.732 6.18059 271.31 6.18059 276.106C6.18059 280.684 6.94359 285.153 8.46959 289.513C9.99559 293.8 12.2119 297.688 15.1186 301.176C18.0979 304.591 21.6949 307.316 25.9096 309.351C30.1969 311.386 35.1019 312.403 40.6246 312.403ZM114.165 316V239.918H120.051V316H114.165ZM88.6587 241.771V236.43H145.557V241.771H88.6587ZM177.02 316L154.566 236.43H160.561L181.598 312.294L179.091 310.659H187.266L184.759 312.294L202.199 240.027H207.758L189.228 316H177.02ZM224.871 316L204.706 240.027H210.374L229.558 312.294L226.833 310.659H235.335L232.61 312.294L252.012 236.43H257.898L237.188 316H224.871ZM266.9 316V307.607H274.53V316H266.9ZM294.576 316V307.607H302.206V316H294.576ZM322.252 316V307.607H329.882V316H322.252Z" fill="#CECECE"/>
</g>
<defs>
<clipPath id="clip0_94_350">
<rect width="316" height="541.242" fill="white" transform="translate(12 13)"/>
</clipPath>
</defs>
</svg>
